<svg width="270.579" height="78.9" viewBox="0 0 270.579 78.9" xmlns="http://www.w3.org/2000/svg"><g id="svgGroup" stroke-linecap="round" fill-rule="evenodd" font-size="9pt" stroke="#000" stroke-width="0.25mm" fill="black" style="stroke:#000;stroke-width:0.25mm;fill:black"><path d="M 61.222 55.8 L 59.722 55.7 Q 59.263 56.772 58.54 58.489 A 1133.744 1133.744 0 0 0 58.072 59.6 Q 57.022 62.1 56.072 64.8 Q 55.122 67.5 54.372 70 Q 53.677 72.317 53.626 73.775 A 6.454 6.454 0 0 0 53.622 74 A 0.432 0.432 0 0 1 53.607 74.119 Q 53.569 74.252 53.433 74.287 A 0.442 0.442 0 0 1 53.322 74.3 Q 52.935 74.3 52.735 73.69 A 2.327 2.327 0 0 1 52.722 73.65 Q 52.522 73 52.372 72.2 Q 52.222 71.4 52.172 70.55 A 64.817 64.817 0 0 1 52.152 70.182 Q 52.122 69.63 52.122 69.4 A 30.454 30.454 0 0 1 52.538 64.481 A 36.764 36.764 0 0 1 53.022 62.05 A 37.891 37.891 0 0 1 54.462 57.277 A 32.088 32.088 0 0 1 55.422 55 L 54.122 54.8 Q 53.222 57 52.422 59.15 Q 51.622 61.3 51.022 63.6 A 1.034 1.034 0 0 1 51.01 63.749 Q 50.988 63.903 50.922 64.1 A 0.691 0.691 0 0 1 50.888 64.185 Q 50.792 64.382 50.626 64.302 A 0.314 0.314 0 0 1 50.622 64.3 A 2.285 2.285 0 0 1 50.452 63.833 Q 50.397 63.611 50.373 63.358 A 3.739 3.739 0 0 1 50.372 63.35 A 14.333 14.333 0 0 1 50.342 62.959 Q 50.322 62.65 50.322 62.4 Q 50.322 58.2 51.822 54.3 A 4.299 4.299 0 0 1 52.033 53.923 Q 52.264 53.559 52.494 53.408 A 0.594 0.594 0 0 1 52.822 53.3 Q 54.922 52.7 57.072 52.6 A 94.66 94.66 0 0 1 60.95 52.502 A 104.519 104.519 0 0 1 61.522 52.5 A 66.327 66.327 0 0 1 61.6 52.5 A 65.33 65.33 0 0 1 71.422 53.25 Q 76.322 54 81.222 54 A 25.079 25.079 0 0 0 83.762 53.877 A 19.634 19.634 0 0 0 85.622 53.6 L 85.422 52 Q 84.322 52.3 83.072 52.4 A 31.811 31.811 0 0 1 81.568 52.486 A 26.113 26.113 0 0 1 80.722 52.5 Q 76.822 52.5 72.672 51.7 A 90.665 90.665 0 0 1 65.678 50.07 A 82.176 82.176 0 0 1 64.722 49.8 A 0.733 0.733 0 0 0 64.578 49.691 Q 64.353 49.558 63.922 49.45 A 1.994 1.994 0 0 1 63.705 49.384 Q 63.489 49.303 63.395 49.191 A 0.289 0.289 0 0 1 63.322 49 Q 63.322 48.824 63.787 48.687 A 3.326 3.326 0 0 1 63.922 48.65 A 12.461 12.461 0 0 1 64.166 48.592 Q 64.566 48.5 64.722 48.5 Q 66.122 48.4 67.472 48.35 Q 68.822 48.3 70.222 48.3 Q 72.522 48.3 74.822 48.35 Q 77.122 48.4 79.522 48.4 L 82.022 48.4 A 30.778 30.778 0 0 0 84.069 48.334 A 27.442 27.442 0 0 0 84.522 48.3 L 84.322 47.2 L 83.022 47.2 Q 78.222 47.2 73.472 46.3 Q 68.722 45.4 63.922 45.4 A 28.599 28.599 0 0 0 60.287 45.62 Q 58.406 45.861 56.777 46.367 A 17.693 17.693 0 0 0 56.672 46.4 A 33.536 33.536 0 0 0 54.088 47.332 Q 52.538 47.969 51.272 48.7 A 26.622 26.622 0 0 0 49.584 49.756 Q 48.807 50.287 48.171 50.818 A 13.816 13.816 0 0 0 47.622 51.3 A 186.998 186.998 0 0 0 46.972 51.906 Q 46.167 52.661 45.722 53.101 A 23.513 23.513 0 0 0 45.622 53.2 L 45.422 53.3 Q 45.333 53.3 45.323 53.142 A 0.673 0.673 0 0 1 45.322 53.1 Q 45.322 53.017 45.391 52.934 A 0.497 0.497 0 0 1 45.422 52.9 A 21.856 21.856 0 0 1 47.842 49.149 A 18.431 18.431 0 0 1 49.822 47.05 A 16.076 16.076 0 0 1 54.072 44.314 A 20.005 20.005 0 0 1 56.222 43.5 Q 60.022 35.4 64.072 27.4 Q 68.122 19.4 72.622 11.6 Q 72.721 11.403 73.012 10.965 A 21.095 21.095 0 0 1 73.022 10.95 A 1.826 1.826 0 0 1 73.163 10.764 Q 73.334 10.567 73.505 10.517 A 0.415 0.415 0 0 1 73.622 10.5 A 0.451 0.451 0 0 1 73.674 10.561 Q 73.722 10.63 73.722 10.7 L 73.722 10.9 Q 73.722 11.565 73.653 11.954 A 2.175 2.175 0 0 1 73.622 12.1 Q 71.722 20.2 68.022 27.7 Q 64.322 35.2 60.422 42.5 L 62.322 42.4 Q 62.621 41.802 63.864 39.814 A 223.444 223.444 0 0 1 63.872 39.8 Q 65.122 37.8 66.572 35.65 Q 68.022 33.5 69.222 31.75 Q 70.248 30.255 70.616 30.037 A 0.221 0.221 0 0 1 70.722 30 L 70.822 30.3 A 1.687 1.687 0 0 1 70.794 30.576 Q 70.715 31.031 70.424 31.911 A 31.537 31.537 0 0 1 70.222 32.5 Q 69.622 34.2 68.822 36.2 Q 68.022 38.2 67.272 39.95 L 66.222 42.4 Q 66.822 42.4 67.422 42.45 Q 68.022 42.5 68.622 42.5 Q 70.422 38.9 72.472 34.95 Q 74.522 31 76.022 26.9 Q 77.522 22.8 78.072 18.6 A 20.236 20.236 0 0 0 78.245 15.97 A 20.091 20.091 0 0 0 77.422 10.3 A 3.603 3.603 0 0 1 77.41 10.567 Q 77.368 11.128 77.172 12.3 A 42.112 42.112 0 0 1 76.758 14.433 A 49.64 49.64 0 0 1 76.522 15.45 Q 76.122 17.1 75.722 18.35 A 6.925 6.925 0 0 1 75.572 18.774 Q 75.338 19.37 75.103 19.536 A 0.312 0.312 0 0 1 74.922 19.6 A 0.317 0.317 0 0 1 74.811 19.582 Q 74.633 19.516 74.672 19.202 A 0.929 0.929 0 0 1 74.672 19.2 Q 74.72 18.819 74.722 18.71 A 0.492 0.492 0 0 0 74.722 18.7 Q 74.722 16.1 75.072 13.55 Q 75.422 11 75.422 8.4 Q 75.422 4.9 74.322 1.6 A 0.278 0.278 0 0 0 74.312 1.54 Q 74.275 1.393 74.105 0.959 A 28.601 28.601 0 0 0 74.022 0.75 Q 73.722 0 74.222 0 Q 74.422 0 74.922 0.5 A 9.278 9.278 0 0 1 75.757 1.468 Q 76.146 1.983 76.527 2.609 A 18.138 18.138 0 0 1 76.872 3.2 A 32.939 32.939 0 0 1 78.317 6.128 A 37.154 37.154 0 0 1 78.622 6.85 Q 79.422 8.8 80.122 10.7 Q 80.805 12.554 81.203 13.837 A 34.156 34.156 0 0 1 81.222 13.9 Q 82.522 18.2 83.372 22.55 Q 84.222 26.9 84.872 31.25 Q 85.522 35.6 86.222 40 Q 86.922 44.4 87.822 48.7 Q 88.722 52.9 89.972 56.9 Q 91.222 60.9 93.022 64.5 Q 94.822 68.1 97.172 71.15 Q 99.522 74.2 102.622 76.5 A 3.764 3.764 0 0 1 102.753 76.637 Q 103.101 77.022 102.972 77.15 Q 102.844 77.278 102.24 76.931 A 6.949 6.949 0 0 1 102.022 76.8 A 41.8 41.8 0 0 0 101.574 76.559 Q 100.835 76.167 100.522 76.05 A 2.438 2.438 0 0 1 100.314 75.958 Q 99.882 75.747 99.022 75.2 A 17.715 17.715 0 0 1 95.257 72.232 A 20.406 20.406 0 0 1 94.622 71.55 Q 92.622 69.3 91.022 66.6 Q 89.422 63.9 88.172 60.85 Q 86.922 57.8 86.022 54.8 A 9.566 9.566 0 0 1 82.957 56.082 A 12.293 12.293 0 0 1 81.272 56.35 Q 78.522 56.6 76.222 56.6 Q 73.322 56.6 70.472 56.4 Q 67.622 56.2 64.722 56.2 Q 61.922 61.4 59.472 66.25 Q 57.022 71.1 55.622 75.3 A 0.413 0.413 0 0 1 55.617 75.356 Q 55.6 75.477 55.522 75.75 Q 55.422 76.1 55.222 76.1 A 0.224 0.224 0 0 1 55.02 75.972 Q 54.923 75.802 54.922 75.408 A 3.266 3.266 0 0 1 54.922 75.4 L 54.922 74.5 A 19.614 19.614 0 0 1 55.337 70.611 Q 55.7 68.816 56.382 66.867 A 36.334 36.334 0 0 1 56.872 65.55 Q 58.822 60.6 61.222 55.8 Z M 12.906 45.431 A 87.713 87.713 0 0 0 10.922 54 A 3.64 3.64 0 0 1 10.217 55.437 A 3.858 3.858 0 0 1 9.022 56.4 Q 8.422 56.8 7.872 57.25 A 11.243 11.243 0 0 0 7.762 57.341 Q 7.418 57.63 7.343 57.748 A 0.108 0.108 0 0 0 7.322 57.8 A 0.104 0.104 0 0 0 7.353 57.837 Q 7.497 57.945 8.119 57.726 A 6.989 6.989 0 0 0 8.322 57.65 A 83.589 83.589 0 0 0 8.435 57.606 Q 9.075 57.356 9.323 57.246 A 2.478 2.478 0 0 0 9.422 57.2 Q 13.822 55 18.272 52.55 Q 22.722 50.1 26.672 47.2 Q 30.622 44.3 33.822 40.85 Q 37.022 37.4 39.122 33.2 Q 40.722 29.9 40.922 26.35 A 17.273 17.273 0 0 0 40.95 25.378 A 15.388 15.388 0 0 0 39.872 19.65 Q 38.622 16.5 36.022 14 Q 33.422 11.5 29.422 10.3 Q 25.622 9.2 21.722 8.95 A 43.14 43.14 0 0 0 18.962 8.861 A 40.054 40.054 0 0 0 14.122 9.15 Q 10.422 9.6 6.972 10.75 Q 3.522 11.9 0.722 13.6 Q 0.644 13.678 0.413 13.817 A 6.963 6.963 0 0 1 0.272 13.9 Q -0.027 14.071 0.003 14.242 A 0.21 0.21 0 0 0 0.022 14.3 Q 0.122 14.5 0.922 14.3 A 128.511 128.511 0 0 1 1.55 14.101 A 141.846 141.846 0 0 1 6.122 12.75 Q 8.822 12 11.722 11.6 A 53.709 53.709 0 0 1 11.589 12.527 A 59.177 59.177 0 0 1 10.172 19.15 A 347.674 347.674 0 0 1 10.04 19.632 A 378.983 378.983 0 0 1 7.922 27.05 Q 6.722 31.1 5.422 35.3 Q 4.122 39.5 3.122 43.7 Q 2.222 47.6 1.672 51.7 Q 1.122 55.8 1.422 59.75 Q 1.722 63.7 3.022 67.4 Q 4.322 71.1 7.022 74.2 Q 7.322 74.4 7.572 74.45 Q 7.797 74.495 7.578 74.097 A 2.933 2.933 0 0 0 7.522 74 A 24.167 24.167 0 0 1 7.042 73.049 A 26.389 26.389 0 0 1 5.122 67.45 Q 4.322 63.9 4.222 60.2 Q 4.122 56.5 4.522 52.8 Q 4.922 49.1 5.722 45.8 Q 6.722 41.5 8.222 37.1 Q 9.722 32.7 11.022 28.35 Q 12.322 24 13.172 19.75 A 38.103 38.103 0 0 0 13.933 12.265 A 35.467 35.467 0 0 0 13.922 11.4 A 2.175 2.175 0 0 1 14.068 11.369 Q 14.457 11.3 15.122 11.3 Q 15.01 12.875 14.802 14.687 A 115.238 115.238 0 0 1 14.422 17.65 A 189.663 189.663 0 0 1 14.296 18.534 A 171.739 171.739 0 0 1 13.322 24.5 Q 12.722 27.8 12.122 30.3 A 410.483 410.483 0 0 1 12.086 30.45 Q 11.626 32.363 11.411 33.174 A 18.096 18.096 0 0 1 11.322 33.5 A 12.606 12.606 0 0 0 11.093 34.093 Q 10.907 34.612 10.736 35.215 A 24.829 24.829 0 0 0 10.422 36.45 Q 10.022 38.2 9.722 40 A 404.32 404.32 0 0 1 9.703 40.112 A 372.122 372.122 0 0 1 9.122 43.5 Q 8.822 45.2 8.722 46.4 A 1.075 1.075 0 0 1 8.722 46.428 Q 8.717 46.609 8.656 47.154 A 50.029 50.029 0 0 1 8.622 47.45 A 6.52 6.52 0 0 0 8.608 47.578 Q 8.558 48.096 8.638 48.242 A 0.095 0.095 0 0 0 8.722 48.3 A 0.213 0.213 0 0 0 8.79 48.311 Q 9.015 48.311 9.292 47.842 A 3.991 3.991 0 0 0 9.422 47.6 L 9.922 46.6 A 201.877 201.877 0 0 0 11.422 42.895 A 244.181 244.181 0 0 0 13.922 36.25 A 142.593 142.593 0 0 0 14.533 34.522 A 127.655 127.655 0 0 0 17.322 25.4 A 16.58 16.58 0 0 0 17.656 24.063 Q 17.9 22.889 18.029 21.517 A 34.697 34.697 0 0 0 18.172 18.7 A 33.554 33.554 0 0 0 18.175 18.281 Q 18.175 17.106 18.092 15.984 A 25.706 25.706 0 0 0 17.322 11.3 Q 22.522 11.3 27.622 12.8 A 24.527 24.527 0 0 1 28.652 13.143 Q 30.826 13.921 32.508 15.011 A 12.152 12.152 0 0 1 36.872 19.75 Q 39.322 24.6 37.022 30.6 Q 35.622 34.2 33.272 37.3 Q 30.922 40.4 27.922 43.15 Q 24.922 45.9 21.472 48.35 Q 18.022 50.8 14.422 53.2 Q 14.922 51.5 15.322 49.95 Q 15.722 48.4 16.222 46.6 A 143.714 143.714 0 0 1 16.534 45.379 Q 17.092 43.227 17.972 40.05 Q 19.122 35.9 20.022 31.45 Q 20.922 27 21.172 22.85 Q 21.422 18.7 20.322 16.2 Q 20.165 15.729 20.07 15.628 A 0.071 0.071 0 0 0 20.022 15.6 L 19.872 15.6 A 0.01 0.01 0 0 0 19.869 15.601 Q 19.828 15.615 19.823 15.983 A 8.232 8.232 0 0 0 19.822 16.1 Q 19.622 21.5 18.422 26.2 Q 17.222 30.9 15.822 35.4 Q 14.422 40.2 13.072 44.85 A 95.858 95.858 0 0 0 12.906 45.431 Z M 140.922 59.6 A 18.043 18.043 0 0 0 143.766 63.837 A 20.052 20.052 0 0 0 143.822 63.9 A 30.3 30.3 0 0 1 145.929 56.848 A 34.677 34.677 0 0 1 146.522 55.55 Q 148.522 51.4 151.072 47.2 Q 153.622 43 156.422 38.8 Q 159.222 34.6 161.622 30.3 A 38.137 38.137 0 0 0 164.514 24.048 A 42.188 42.188 0 0 0 164.672 23.6 Q 165.922 20 166.472 16.25 Q 167.022 12.5 166.772 8.8 Q 166.522 5.1 165.222 1.8 Q 164.922 1.3 165.122 1.1 Q 165.313 0.909 165.73 1.309 A 2.667 2.667 0 0 1 165.772 1.35 A 9.116 9.116 0 0 1 165.952 1.535 Q 166.214 1.812 166.304 1.966 A 0.606 0.606 0 0 1 166.322 2 A 10.824 10.824 0 0 1 167.278 3.672 Q 167.67 4.511 167.993 5.509 A 21.035 21.035 0 0 1 168.272 6.45 A 34.409 34.409 0 0 1 168.989 9.734 A 44.224 44.224 0 0 1 169.372 12.55 Q 169.722 15.9 169.722 19.6 Q 169.722 23.3 169.422 27 Q 169.022 31.9 167.972 37.7 A 98.159 98.159 0 0 1 166.649 43.909 A 77.307 77.307 0 0 1 165.422 48.3 Q 165.322 48.5 165.072 49.2 Q 164.85 49.821 164.589 49.891 A 0.258 0.258 0 0 1 164.522 49.9 Q 164.322 49.8 164.222 49.05 A 34.887 34.887 0 0 1 164.188 48.788 Q 164.126 48.294 164.122 48.121 A 0.969 0.969 0 0 1 164.122 48.1 Q 164.122 47.344 164.146 46.375 A 117.886 117.886 0 0 1 164.172 45.45 A 111.998 111.998 0 0 1 164.298 42.661 A 123.164 123.164 0 0 1 164.322 42.25 A 89.864 89.864 0 0 1 164.554 39.244 A 82.15 82.15 0 0 1 164.572 39.05 Q 164.722 37.5 164.922 36.4 Q 165.019 35.818 165.257 33.779 A 300.289 300.289 0 0 0 165.272 33.65 A 98.672 98.672 0 0 0 165.503 31.438 Q 165.612 30.27 165.709 28.973 A 160.309 160.309 0 0 0 165.722 28.8 Q 164.691 31.206 164.029 33.169 A 38.638 38.638 0 0 0 163.822 33.8 Q 163.122 36 162.622 38.1 A 53.275 53.275 0 0 0 161.885 41.786 A 59.625 59.625 0 0 0 161.772 42.5 A 76.566 76.566 0 0 0 161.517 44.338 Q 161.413 45.15 161.315 46.041 A 135.41 135.41 0 0 0 161.122 47.9 Q 160.865 50.557 160.865 53.435 A 65.65 65.65 0 0 0 160.872 54.4 Q 160.922 57.8 161.572 61.1 Q 162.222 64.4 163.472 67.55 Q 164.722 70.7 166.722 73.3 Q 167.122 73.9 166.922 74 A 0.234 0.234 0 0 1 166.816 74.025 Q 166.647 74.025 166.422 73.8 A 21.934 21.934 0 0 1 162.804 70.108 A 19.133 19.133 0 0 1 161.372 67.95 Q 159.522 64.7 158.622 61.1 Q 157.722 57.5 157.672 53.75 A 62.366 62.366 0 0 1 157.667 52.919 A 58.99 58.99 0 0 1 158.022 46.4 Q 158.222 45.1 158.372 43.8 Q 158.522 42.5 158.722 41.1 Q 156.422 44.8 154.122 48.3 Q 151.822 51.8 149.822 55.25 A 85.28 85.28 0 0 0 146.869 60.79 A 75.976 75.976 0 0 0 146.272 62.05 Q 144.722 65.4 143.922 68.7 L 143.722 69.2 A 0.16 0.16 0 0 1 143.573 69.102 Q 143.534 69.024 143.525 68.885 A 1.347 1.347 0 0 1 143.522 68.8 L 143.522 68.3 L 143.522 66.7 Q 143.522 65.9 143.722 65.1 Q 143.035 64.756 142.495 64.449 A 17.784 17.784 0 0 1 142.322 64.35 A 6.729 6.729 0 0 1 141.311 63.623 A 7.52 7.52 0 0 1 141.172 63.5 A 8.666 8.666 0 0 1 140.571 62.893 A 11.365 11.365 0 0 1 140.072 62.3 A 9.431 9.431 0 0 1 139.653 61.719 Q 139.297 61.188 138.922 60.5 Q 138.52 59.695 138.118 58.632 A 30.474 30.474 0 0 1 137.922 58.1 Q 137.422 56.7 137.072 55.35 Q 136.722 54 136.672 53.05 Q 136.622 52.1 136.922 52.1 Q 137.085 52.1 137.282 52.333 A 1.847 1.847 0 0 1 137.372 52.45 A 9.632 9.632 0 0 1 137.567 52.734 Q 137.735 52.988 137.922 53.3 A 7.167 7.167 0 0 1 138.337 54.097 A 6.382 6.382 0 0 1 138.422 54.3 Q 138.622 54.8 138.722 55 Q 139.222 56.2 139.772 57.35 Q 140.322 58.5 140.922 59.6 Z M 128.322 1.1 A 0.059 0.059 0 0 0 128.262 1.148 Q 128.214 1.307 128.522 2 A 30.401 30.401 0 0 1 129.139 3.841 A 34.524 34.524 0 0 1 130.322 9.55 A 47.801 47.801 0 0 1 130.679 15.412 A 50.194 50.194 0 0 1 130.622 17.8 Q 130.422 22 129.572 26.2 Q 128.722 30.4 127.522 34.3 Q 125.522 40.4 122.822 46.25 Q 120.122 52.1 117.672 57.65 A 161.867 161.867 0 0 0 116.204 61.08 A 138.105 138.105 0 0 0 113.422 68.35 A 37.024 37.024 0 0 0 112.311 72.149 A 29.35 29.35 0 0 0 111.522 78.2 L 111.522 78.6 A 0.693 0.693 0 0 0 111.528 78.694 Q 111.546 78.823 111.617 78.871 A 0.183 0.183 0 0 0 111.722 78.9 A 0.049 0.049 0 0 0 111.74 78.896 Q 111.839 78.858 112.022 78.4 A 58.875 58.875 0 0 1 113.447 74.506 A 80.929 80.929 0 0 1 115.272 70.35 Q 117.322 66 119.672 61.1 A 733.296 733.296 0 0 0 120.853 58.625 A 817.344 817.344 0 0 0 124.472 50.9 Q 126.922 45.6 128.922 39.9 A 3.227 3.227 0 0 0 128.932 40.153 A 2.524 2.524 0 0 0 128.972 40.45 A 2.454 2.454 0 0 1 129.007 40.683 A 3.135 3.135 0 0 1 129.022 41 Q 129.122 44.6 129.822 48.15 Q 130.522 51.7 131.972 55 Q 133.422 58.3 135.722 61.1 A 18.886 18.886 0 0 0 137.616 63.088 A 22.018 22.018 0 0 0 141.522 65.9 Q 142.022 66.2 142.222 66.1 Q 142.322 66.1 141.722 65.5 Q 136.922 61 134.722 54.6 A 51.191 51.191 0 0 1 133.964 52.207 A 44.291 44.291 0 0 1 132.222 42 Q 132.022 38.8 132.222 35.65 Q 132.422 32.5 132.722 29.35 Q 133.022 26.2 133.222 23.1 Q 133.422 20 133.222 16.9 Q 133.522 19 133.772 21.15 Q 134.022 23.3 134.122 25.1 A 230.881 230.881 0 0 1 134.18 26.181 Q 134.238 27.322 134.272 28.25 Q 134.322 29.6 134.322 30 Q 134.322 30.675 134.338 31.461 A 106.668 106.668 0 0 0 134.372 32.75 A 50.356 50.356 0 0 0 134.386 33.139 A 55.616 55.616 0 0 0 134.572 35.95 Q 134.722 37.6 134.922 39.1 Q 135.122 40.6 135.322 41.7 Q 135.322 42 135.522 42.75 A 4.81 4.81 0 0 0 135.593 42.992 Q 135.704 43.336 135.816 43.447 A 0.153 0.153 0 0 0 135.922 43.5 Q 136.167 43.5 136.279 42.967 A 3.318 3.318 0 0 0 136.322 42.7 Q 136.422 41.9 136.522 41.7 Q 137.322 36.9 137.672 32.15 A 47.89 47.89 0 0 0 137.801 28.63 A 50.395 50.395 0 0 0 137.422 22.5 A 66.99 66.99 0 0 0 137.274 21.313 Q 137.039 19.568 136.733 18.026 A 37.253 37.253 0 0 0 136.022 15.05 A 53.629 53.629 0 0 0 135.994 14.952 Q 135.105 11.863 134.022 9.5 Q 132.922 7.1 131.722 5.35 Q 130.522 3.6 129.522 2.1 A 1.522 1.522 0 0 1 129.508 2.086 Q 129.397 1.971 129.022 1.55 A 2.765 2.765 0 0 0 128.902 1.423 Q 128.706 1.228 128.535 1.151 A 0.516 0.516 0 0 0 128.322 1.1 Z M 143.022 40.1 L 143.022 41.1 Q 145.222 36.8 147.572 32.75 Q 149.371 29.649 150.614 27.516 A 1800.847 1800.847 0 0 1 151.322 26.3 Q 153.722 22 156.322 17.85 A 458.898 458.898 0 0 0 158.463 14.401 Q 159.753 12.3 160.822 10.5 Q 161.022 10 161.272 9.6 Q 161.521 9.202 161.721 9.398 A 0.343 0.343 0 0 1 161.722 9.4 Q 161.911 9.4 161.832 9.847 A 2.423 2.423 0 0 1 161.822 9.9 L 161.622 10.9 Q 160.222 18.1 156.572 24.5 Q 152.922 30.9 148.922 37.4 A 105.444 105.444 0 0 1 147.921 38.945 Q 147.128 40.144 146.472 41.05 A 30.557 30.557 0 0 0 145.331 42.737 A 24.466 24.466 0 0 0 144.672 43.85 A 15.331 15.331 0 0 0 143.619 46.209 A 17.464 17.464 0 0 0 143.422 46.8 A 12.995 12.995 0 0 0 143.092 48.111 Q 142.955 48.796 142.855 49.592 A 29.286 29.286 0 0 0 142.722 50.9 Q 143.122 49.8 143.622 48.8 A 51.03 51.03 0 0 1 144.372 47.356 A 45.061 45.061 0 0 1 144.622 46.9 A 111.28 111.28 0 0 1 150.058 38.5 A 123.175 123.175 0 0 1 150.922 37.3 A 233.162 233.162 0 0 1 156.109 30.446 A 202.083 202.083 0 0 1 157.822 28.3 A 4.066 4.066 0 0 0 157.926 28.191 Q 158.092 28.012 158.383 27.673 A 51.031 51.031 0 0 0 158.572 27.45 A 5.257 5.257 0 0 1 158.742 27.259 Q 159.089 26.887 159.263 26.887 A 0.131 0.131 0 0 1 159.322 26.9 A 0.139 0.139 0 0 1 159.388 26.976 Q 159.464 27.163 159.292 27.737 A 6.005 6.005 0 0 1 159.272 27.8 Q 159.023 28.596 158.923 28.996 A 7.689 7.689 0 0 0 158.922 29 A 180.808 180.808 0 0 1 158.512 29.895 Q 158.327 30.298 158.117 30.749 A 378.899 378.899 0 0 1 157.672 31.7 Q 156.922 33.3 156.072 34.95 Q 155.222 36.6 154.322 38.15 Q 153.422 39.7 152.722 40.7 Q 152.322 41.3 151.022 43.1 Q 150.027 44.478 148.914 46.384 A 65.672 65.672 0 0 0 148.222 47.6 Q 146.722 50.3 145.272 53.7 Q 143.822 57.1 143.122 60.9 L 142.372 59.4 A 8.172 8.172 0 0 1 142.138 58.881 Q 141.888 58.279 141.599 57.387 A 41.66 41.66 0 0 1 141.322 56.5 Q 139.522 50.2 139.372 43.75 Q 139.222 37.3 139.322 30.5 A 246.591 246.591 0 0 0 139.389 24.767 A 246.546 246.546 0 0 0 139.372 21.9 A 31.158 31.158 0 0 0 138.789 16.366 A 39.302 39.302 0 0 0 137.922 12.8 A 1.981 1.981 0 0 1 137.892 12.66 Q 137.844 12.384 137.912 12.223 A 0.386 0.386 0 0 1 137.922 12.2 A 0.222 0.222 0 0 1 138.033 12.236 Q 138.221 12.348 138.522 12.8 A 8.893 8.893 0 0 1 139.881 14.715 Q 140.702 16.24 141.222 18.35 Q 142.122 22 142.522 26.05 A 92.87 92.87 0 0 1 142.969 33.709 A 85.617 85.617 0 0 1 142.972 33.95 Q 143.022 37.8 143.022 40.1 Z M 51.422 21.6 Q 51.922 25.9 51.172 29.35 A 70.799 70.799 0 0 1 50.603 31.776 Q 50.122 33.663 49.622 35.1 Q 47.922 39.5 45.022 43.15 A 38.573 38.573 0 0 1 39.526 48.81 A 35.555 35.555 0 0 1 38.672 49.5 A 40.442 40.442 0 0 1 32.443 53.536 A 37.155 37.155 0 0 1 31.522 54 A 37.843 37.843 0 0 1 28.38 55.364 Q 26.422 56.106 24.622 56.5 Q 23.822 56.7 22.972 56.85 Q 22.154 56.994 22.216 56.815 A 0.12 0.12 0 0 1 22.222 56.8 A 0.14 0.14 0 0 1 22.19 56.752 Q 22.116 56.565 22.754 56.235 A 5.541 5.541 0 0 1 22.822 56.2 Q 23.622 55.8 24.322 55.5 Q 29.922 52.8 34.822 49.1 Q 39.722 45.4 43.222 40.2 Q 44.922 37.7 46.222 34.65 Q 47.522 31.6 48.022 28.3 Q 48.522 25 48.022 21.55 A 19.726 19.726 0 0 0 46.152 15.627 A 22.746 22.746 0 0 0 45.722 14.8 A 21.264 21.264 0 0 0 41.567 9.396 A 19.694 19.694 0 0 0 39.822 7.95 Q 36.222 5.3 31.922 3.95 Q 27.622 2.6 23.072 2.35 A 43.204 43.204 0 0 0 20.702 2.284 A 38.748 38.748 0 0 0 14.322 2.8 A 35.153 35.153 0 0 1 14.115 2.834 Q 13.759 2.891 13.65 2.899 A 0.409 0.409 0 0 1 13.622 2.9 Q 13.522 2.9 13.322 2.8 Q 13.322 2.617 13.616 2.517 A 1.237 1.237 0 0 1 13.672 2.5 Q 14.022 2.4 14.322 2.2 A 14.373 14.373 0 0 1 15.764 1.657 Q 16.473 1.43 17.3 1.228 A 32.996 32.996 0 0 1 19.072 0.85 A 23.691 23.691 0 0 1 21.913 0.503 Q 23.672 0.392 25.622 0.5 A 32.066 32.066 0 0 1 30.056 1.072 A 40.577 40.577 0 0 1 33.272 1.85 Q 37.322 3 41.422 5.7 Q 45.522 8.4 48.172 12.75 A 24.541 24.541 0 0 1 50.574 17.899 A 20.736 20.736 0 0 1 51.422 21.6 Z M 218.014 11.665 A 2.247 2.247 0 0 0 217.922 11.7 A 19.748 19.748 0 0 1 216.426 12.105 Q 214.55 12.533 212.763 12.533 A 14.636 14.636 0 0 1 211.772 12.5 Q 208.822 12.3 205.922 12.1 A 76 76 0 0 0 199.337 11.809 A 70.874 70.874 0 0 0 196.922 11.85 A 20.81 20.81 0 0 0 196.065 11.897 A 21.692 21.692 0 0 0 188.322 14 L 187.722 14.4 A 1.414 1.414 0 0 0 187.668 14.438 Q 187.53 14.539 187.47 14.641 A 0.308 0.308 0 0 0 187.422 14.8 A 0.135 0.135 0 0 0 187.45 14.882 Q 187.523 14.981 187.792 15.027 A 2.332 2.332 0 0 0 187.972 15.05 A 55.963 55.963 0 0 0 188.123 15.064 Q 188.537 15.1 188.622 15.1 A 165.689 165.689 0 0 1 187.454 20.065 A 203.725 203.725 0 0 1 185.072 28.7 Q 182.922 35.9 181.222 43.1 Q 179.522 44.5 178.322 46.4 Q 177.122 48.3 176.622 51.2 A 0.799 0.799 0 0 0 176.565 51.358 Q 176.543 51.443 176.532 51.546 A 1.996 1.996 0 0 0 176.522 51.75 A 1.113 1.113 0 0 0 176.523 51.793 Q 176.535 52.1 176.722 52.1 A 0.193 0.193 0 0 0 176.85 52.051 Q 176.957 51.961 177.022 51.7 A 15.473 15.473 0 0 1 177.316 51.038 A 13.37 13.37 0 0 1 179.672 47.55 Q 181.322 45.8 183.272 44.6 Q 185.222 43.4 187.322 42.8 Q 189.422 42.2 191.522 42.1 A 36.314 36.314 0 0 1 192.622 42.083 A 36.665 36.665 0 0 1 198.122 42.5 Q 201.422 43 204.622 43.2 Q 205.432 43.251 206.222 43.25 A 22.244 22.244 0 0 0 210.722 42.8 A 9.542 9.542 0 0 0 213.601 41.691 A 11.883 11.883 0 0 0 216.022 39.8 A 0.664 0.664 0 0 0 216.177 39.563 A 0.739 0.739 0 0 0 216.222 39.3 A 0.289 0.289 0 0 0 216.218 39.251 Q 216.178 39.018 215.722 39.2 Q 213.622 40 211.422 40.15 Q 209.222 40.3 206.822 40.15 Q 204.422 40 201.822 39.65 Q 199.222 39.3 196.522 39.1 Q 197.222 36.2 197.922 32.9 Q 198.622 29.6 199.072 26.35 A 58.302 58.302 0 0 0 199.356 23.945 A 47.219 47.219 0 0 0 199.572 20.25 Q 199.602 18.551 199.401 17.154 A 12.121 12.121 0 0 0 199.022 15.4 Q 200.372 15.4 202.257 15.456 A 202.648 202.648 0 0 1 203.572 15.5 A 43.351 43.351 0 0 0 205.148 15.529 A 44.672 44.672 0 0 0 209.122 15.35 Q 211.922 15.1 214.372 14.4 A 11.57 11.57 0 0 0 214.685 14.306 Q 216.906 13.603 218.122 12.2 A 1.061 1.061 0 0 0 218.189 12.127 A 0.844 0.844 0 0 0 218.372 11.75 A 0.253 0.253 0 0 0 218.375 11.731 Q 218.4 11.531 218.014 11.665 Z M 264.414 11.665 A 2.247 2.247 0 0 0 264.322 11.7 A 19.748 19.748 0 0 1 262.826 12.105 Q 260.95 12.533 259.163 12.533 A 14.636 14.636 0 0 1 258.172 12.5 Q 255.222 12.3 252.322 12.1 A 76 76 0 0 0 245.737 11.809 A 70.874 70.874 0 0 0 243.322 11.85 A 20.81 20.81 0 0 0 242.465 11.897 A 21.692 21.692 0 0 0 234.722 14 L 234.122 14.4 A 1.414 1.414 0 0 0 234.068 14.438 Q 233.93 14.539 233.87 14.641 A 0.308 0.308 0 0 0 233.822 14.8 A 0.135 0.135 0 0 0 233.85 14.882 Q 233.923 14.981 234.192 15.027 A 2.332 2.332 0 0 0 234.372 15.05 A 55.963 55.963 0 0 0 234.523 15.064 Q 234.937 15.1 235.022 15.1 A 165.689 165.689 0 0 1 233.854 20.065 A 203.725 203.725 0 0 1 231.472 28.7 Q 229.322 35.9 227.622 43.1 Q 225.922 44.5 224.722 46.4 Q 223.522 48.3 223.022 51.2 A 0.799 0.799 0 0 0 222.965 51.358 Q 222.943 51.443 222.932 51.546 A 1.996 1.996 0 0 0 222.922 51.75 A 1.113 1.113 0 0 0 222.923 51.793 Q 222.935 52.1 223.122 52.1 A 0.193 0.193 0 0 0 223.25 52.051 Q 223.357 51.961 223.422 51.7 A 15.473 15.473 0 0 1 223.716 51.038 A 13.37 13.37 0 0 1 226.072 47.55 Q 227.722 45.8 229.672 44.6 Q 231.622 43.4 233.722 42.8 Q 235.822 42.2 237.922 42.1 A 36.314 36.314 0 0 1 239.022 42.083 A 36.665 36.665 0 0 1 244.522 42.5 Q 247.822 43 251.022 43.2 Q 251.832 43.251 252.622 43.25 A 22.244 22.244 0 0 0 257.122 42.8 A 9.542 9.542 0 0 0 260.001 41.691 A 11.883 11.883 0 0 0 262.422 39.8 A 0.664 0.664 0 0 0 262.577 39.563 A 0.739 0.739 0 0 0 262.622 39.3 A 0.289 0.289 0 0 0 262.618 39.251 Q 262.578 39.018 262.122 39.2 Q 260.022 40 257.822 40.15 Q 255.622 40.3 253.222 40.15 Q 250.822 40 248.222 39.65 Q 245.622 39.3 242.922 39.1 Q 243.622 36.2 244.322 32.9 Q 245.022 29.6 245.472 26.35 A 58.302 58.302 0 0 0 245.756 23.945 A 47.219 47.219 0 0 0 245.972 20.25 Q 246.002 18.551 245.801 17.154 A 12.121 12.121 0 0 0 245.422 15.4 Q 246.772 15.4 248.657 15.456 A 202.648 202.648 0 0 1 249.972 15.5 A 43.351 43.351 0 0 0 251.548 15.529 A 44.672 44.672 0 0 0 255.522 15.35 Q 258.322 15.1 260.772 14.4 A 11.57 11.57 0 0 0 261.085 14.306 Q 263.306 13.603 264.522 12.2 A 1.061 1.061 0 0 0 264.589 12.127 A 0.844 0.844 0 0 0 264.772 11.75 A 0.253 0.253 0 0 0 264.775 11.731 Q 264.8 11.531 264.414 11.665 Z M 193.322 52.9 L 192.722 52.9 Q 192.022 55.3 191.272 57.45 Q 190.522 59.6 189.822 61.6 A 23.248 23.248 0 0 1 191.551 61.094 A 18.802 18.802 0 0 1 192.672 60.85 A 10.93 10.93 0 0 1 194.548 60.672 Q 195.027 60.667 195.522 60.7 Q 198.422 60.8 201.322 61.3 A 130.243 130.243 0 0 0 206.628 62.106 A 119.017 119.017 0 0 0 206.972 62.15 Q 209.378 62.456 211.632 62.456 A 32.679 32.679 0 0 0 212.272 62.45 Q 214.822 62.4 217.022 61.3 A 0.458 0.458 0 0 1 217.058 61.284 Q 217.198 61.228 217.219 61.352 A 0.293 0.293 0 0 1 217.222 61.4 A 0.851 0.851 0 0 1 217.164 61.706 A 1.045 1.045 0 0 1 217.122 61.8 A 11.369 11.369 0 0 1 215.186 63.505 A 8.397 8.397 0 0 1 212.272 64.8 Q 209.622 65.4 206.722 65.25 Q 203.822 65.1 200.822 64.5 A 30.053 30.053 0 0 0 194.968 63.9 A 28.215 28.215 0 0 0 194.922 63.9 Q 192.318 63.83 189.639 64.701 A 19.84 19.84 0 0 0 187.372 65.6 A 13.47 13.47 0 0 0 182.952 68.973 A 18.548 18.548 0 0 0 180.922 71.8 A 4.826 4.826 0 0 1 180.817 71.935 Q 180.616 72.185 180.532 72.199 A 0.058 0.058 0 0 1 180.522 72.2 A 0.054 0.054 0 0 1 180.471 72.165 Q 180.442 72.103 180.467 71.933 A 1.713 1.713 0 0 1 180.472 71.9 Q 180.522 71.6 180.522 71.5 A 18.067 18.067 0 0 1 180.767 70.861 Q 181.004 70.281 181.221 69.89 A 4.962 4.962 0 0 1 181.272 69.8 Q 181.573 69.284 181.911 68.621 A 34.103 34.103 0 0 0 182.022 68.4 Q 180.622 65.6 180.022 62.75 A 33.931 33.931 0 0 1 179.341 57.283 A 37.555 37.555 0 0 1 179.322 56.8 Q 179.322 54.921 179.589 53.843 A 4.38 4.38 0 0 1 179.722 53.4 A 2.187 2.187 0 0 1 180.127 52.738 Q 180.805 51.944 182.422 51.1 Q 186.222 49.1 190.522 49.1 Q 194.822 49.1 199.122 49.6 Q 201.922 49.9 204.722 50.05 A 13.716 13.716 0 0 0 205.456 50.07 Q 207.914 50.07 210.522 49.2 Q 211.004 49.007 210.929 49.325 A 0.558 0.558 0 0 1 210.922 49.35 Q 210.834 49.659 210.668 49.851 A 0.927 0.927 0 0 1 210.622 49.9 A 6.24 6.24 0 0 1 208.174 51.711 A 8.266 8.266 0 0 1 207.022 52.1 Q 204.722 52.7 202.122 52.85 Q 199.522 53 197.122 52.9 A 63.331 63.331 0 0 0 196.12 52.866 Q 194.569 52.826 193.524 52.887 A 15.653 15.653 0 0 0 193.322 52.9 Z M 239.722 52.9 L 239.122 52.9 Q 238.422 55.3 237.672 57.45 Q 236.922 59.6 236.222 61.6 A 23.248 23.248 0 0 1 237.951 61.094 A 18.802 18.802 0 0 1 239.072 60.85 A 10.93 10.93 0 0 1 240.948 60.672 Q 241.427 60.667 241.922 60.7 Q 244.822 60.8 247.722 61.3 A 130.243 130.243 0 0 0 253.028 62.106 A 119.017 119.017 0 0 0 253.372 62.15 Q 255.778 62.456 258.032 62.456 A 32.679 32.679 0 0 0 258.672 62.45 Q 261.222 62.4 263.422 61.3 A 0.458 0.458 0 0 1 263.458 61.284 Q 263.598 61.228 263.619 61.352 A 0.293 0.293 0 0 1 263.622 61.4 A 0.851 0.851 0 0 1 263.564 61.706 A 1.045 1.045 0 0 1 263.522 61.8 A 11.369 11.369 0 0 1 261.586 63.505 A 8.397 8.397 0 0 1 258.672 64.8 Q 256.022 65.4 253.122 65.25 Q 250.222 65.1 247.222 64.5 A 30.053 30.053 0 0 0 241.368 63.9 A 28.215 28.215 0 0 0 241.322 63.9 Q 238.718 63.83 236.039 64.701 A 19.84 19.84 0 0 0 233.772 65.6 A 13.47 13.47 0 0 0 229.352 68.973 A 18.548 18.548 0 0 0 227.322 71.8 A 4.826 4.826 0 0 1 227.217 71.935 Q 227.016 72.185 226.932 72.199 A 0.058 0.058 0 0 1 226.922 72.2 A 0.054 0.054 0 0 1 226.871 72.165 Q 226.842 72.103 226.867 71.933 A 1.713 1.713 0 0 1 226.872 71.9 Q 226.922 71.6 226.922 71.5 A 18.067 18.067 0 0 1 227.167 70.861 Q 227.404 70.281 227.621 69.89 A 4.962 4.962 0 0 1 227.672 69.8 Q 227.973 69.284 228.311 68.621 A 34.103 34.103 0 0 0 228.422 68.4 Q 227.022 65.6 226.422 62.75 A 33.931 33.931 0 0 1 225.741 57.283 A 37.555 37.555 0 0 1 225.722 56.8 Q 225.722 54.921 225.989 53.843 A 4.38 4.38 0 0 1 226.122 53.4 A 2.187 2.187 0 0 1 226.527 52.738 Q 227.205 51.944 228.822 51.1 Q 232.622 49.1 236.922 49.1 Q 241.222 49.1 245.522 49.6 Q 248.322 49.9 251.122 50.05 A 13.716 13.716 0 0 0 251.856 50.07 Q 254.314 50.07 256.922 49.2 Q 257.404 49.007 257.329 49.325 A 0.558 0.558 0 0 1 257.322 49.35 Q 257.234 49.659 257.068 49.851 A 0.927 0.927 0 0 1 257.022 49.9 A 6.24 6.24 0 0 1 254.574 51.711 A 8.266 8.266 0 0 1 253.422 52.1 Q 251.122 52.7 248.522 52.85 Q 245.922 53 243.522 52.9 A 63.331 63.331 0 0 0 242.52 52.866 Q 240.969 52.826 239.924 52.887 A 15.653 15.653 0 0 0 239.722 52.9 Z M 46.119 21.563 A 16.765 16.765 0 0 0 45.122 17.4 Q 44.222 15 42.622 13 Q 41.022 11 39.072 9.4 Q 37.122 7.8 34.872 6.65 A 35.627 35.627 0 0 0 33.206 5.851 A 29.186 29.186 0 0 0 30.522 4.8 A 19.638 19.638 0 0 0 27.337 4.036 Q 25.491 3.748 23.431 3.748 A 29.82 29.82 0 0 0 23.072 3.75 Q 18.922 3.8 14.972 4.65 A 44.068 44.068 0 0 0 12.108 5.365 A 36.03 36.03 0 0 0 7.772 6.9 A 24.833 24.833 0 0 0 5.969 7.759 Q 5.032 8.256 4.285 8.776 A 10.039 10.039 0 0 0 2.922 9.9 L 2.422 10.4 Q 2.122 10.7 2.222 10.9 A 0.037 0.037 0 0 0 2.225 10.915 Q 2.256 10.983 2.579 10.92 A 3.645 3.645 0 0 0 2.672 10.9 Q 2.925 10.844 3.194 10.724 A 3.961 3.961 0 0 0 3.622 10.5 Q 4.722 9.9 6.972 9.2 Q 8.238 8.806 9.725 8.476 A 49.192 49.192 0 0 1 12.172 8 A 46.316 46.316 0 0 1 14.441 7.674 A 54.959 54.959 0 0 1 18.472 7.35 Q 21.822 7.2 25.122 7.5 A 22.123 22.123 0 0 1 27.476 7.832 A 17.624 17.624 0 0 1 31.222 9 A 32.702 32.702 0 0 1 33.6 10.169 A 24.534 24.534 0 0 1 35.922 11.6 Q 37.922 13 39.122 14.25 A 46.809 46.809 0 0 1 39.162 14.291 Q 40.329 15.51 40.722 16.1 A 8.582 8.582 0 0 1 40.889 16.33 Q 41.968 17.873 42.572 20.15 Q 43.222 22.6 43.372 25.2 Q 43.522 27.8 43.222 30.25 A 17.178 17.178 0 0 1 43.171 30.634 Q 42.851 32.835 42.022 34.4 L 41.722 35 A 4.941 4.941 0 0 0 41.557 35.369 A 6.235 6.235 0 0 0 41.372 35.9 Q 41.222 36.4 41.072 36.8 A 3.204 3.204 0 0 0 41.041 36.888 Q 40.934 37.2 41.022 37.2 A 0.094 0.094 0 0 0 41.049 37.219 Q 41.139 37.262 41.336 37.117 A 1.726 1.726 0 0 0 41.422 37.05 A 2.23 2.23 0 0 0 41.563 36.922 Q 41.793 36.695 42.022 36.35 L 42.622 35.45 Q 42.838 35.127 43.002 34.932 A 2.138 2.138 0 0 1 43.122 34.8 A 17.287 17.287 0 0 0 43.949 33.314 A 21.52 21.52 0 0 0 44.872 31.15 Q 45.622 29.1 45.972 26.85 Q 46.322 24.6 46.172 22.2 A 15.521 15.521 0 0 0 46.119 21.563 Z M 101.522 67.1 L 101.822 68.3 A 3.384 3.384 0 0 1 101.837 68.396 Q 101.904 68.885 101.73 68.852 A 0.143 0.143 0 0 1 101.722 68.85 A 0.494 0.494 0 0 1 101.587 68.791 Q 101.441 68.703 101.272 68.5 Q 101.022 68.2 100.772 67.8 A 6.594 6.594 0 0 1 100.687 67.661 Q 100.526 67.387 100.522 67.304 A 0.087 0.087 0 0 1 100.522 67.3 Q 98.122 62.9 96.722 58.35 Q 95.322 53.8 94.522 49.15 Q 93.722 44.5 93.172 39.75 Q 92.622 35 91.872 30.05 Q 91.122 25.1 89.922 20 Q 88.722 14.9 86.522 9.6 A 3.61 3.61 0 0 1 86.466 9.481 Q 86.382 9.297 86.253 8.977 A 29.077 29.077 0 0 1 86.222 8.9 Q 86.091 8.572 86.132 8.416 A 0.171 0.171 0 0 1 86.222 8.3 A 0.36 0.36 0 0 1 86.357 8.329 Q 86.472 8.376 86.613 8.498 A 2.098 2.098 0 0 1 86.722 8.6 L 87.122 9 A 19.049 19.049 0 0 1 88.952 11.6 Q 89.753 12.952 90.472 14.582 A 36.502 36.502 0 0 1 91.022 15.9 Q 92.722 20.2 94.022 25.1 Q 95.322 30 96.172 34.8 A 302.874 302.874 0 0 1 96.761 38.231 Q 96.985 39.591 97.176 40.833 A 169.863 169.863 0 0 1 97.522 43.2 Q 98.322 48.9 99.222 55.2 A 122.718 122.718 0 0 0 100.774 63.895 A 106.011 106.011 0 0 0 101.522 67.1 Z M 116.722 32.4 Q 118.422 27.2 120.572 21.9 A 582.486 582.486 0 0 0 122.467 17.173 Q 123.472 14.631 124.322 12.4 Q 124.522 11.9 124.772 11.4 A 2.191 2.191 0 0 1 124.849 11.258 Q 125.013 10.983 125.154 10.983 A 0.151 0.151 0 0 1 125.222 11 A 0.116 0.116 0 0 1 125.325 11.067 Q 125.406 11.209 125.372 11.65 A 18.908 18.908 0 0 0 125.338 12.19 Q 125.322 12.519 125.322 12.8 Q 124.422 21 121.722 29.1 Q 119.022 37.2 115.722 45.1 Q 113.722 50.1 111.422 55.15 Q 109.122 60.2 107.622 66.1 Q 107.443 66.547 107.464 66.674 A 0.092 0.092 0 0 0 107.472 66.699 A 0.229 0.229 0 0 1 107.48 66.718 Q 107.508 66.788 107.446 66.798 A 0.147 0.147 0 0 1 107.422 66.8 Q 107.122 66.6 107.122 65.9 A 11.577 11.577 0 0 1 106.981 64.54 Q 106.878 62.337 107.474 59.456 A 34.119 34.119 0 0 1 107.722 58.35 Q 108.822 53.8 110.522 48.95 A 213.234 213.234 0 0 1 113.574 40.769 A 192.375 192.375 0 0 1 114.022 39.65 Q 115.632 35.669 116.522 33.009 A 54.191 54.191 0 0 0 116.722 32.4 Z M 77.472 1.75 A 31.841 31.841 0 0 0 77.478 1.762 Q 77.824 2.403 78.022 2.7 A 5.989 5.989 0 0 1 78.036 2.728 Q 78.126 2.909 78.383 3.454 A 265.013 265.013 0 0 1 78.522 3.75 Q 78.922 4.6 79.422 5.6 Q 79.922 6.6 80.372 7.6 A 122.466 122.466 0 0 0 80.442 7.754 Q 80.838 8.632 81.022 9 A 80.958 80.958 0 0 1 81.873 11.14 A 67.638 67.638 0 0 1 83.072 14.55 Q 83.922 17.2 84.572 19.8 Q 85.222 22.4 85.722 25.15 Q 86.222 27.9 86.822 30.9 Q 87.622 34.8 88.572 39.55 Q 89.051 41.944 89.593 44.071 A 64.011 64.011 0 0 0 90.722 48 A 3.524 3.524 0 0 0 90.754 48.09 Q 90.869 48.408 91.172 49.1 A 8.275 8.275 0 0 0 91.175 49.106 Q 91.523 49.901 91.822 50.1 A 0.469 0.469 0 0 0 91.992 49.953 Q 92.194 49.676 92.176 49.009 A 4.57 4.57 0 0 0 92.172 48.9 A 167.836 167.836 0 0 1 92.159 48.628 Q 92.122 47.871 92.122 47.7 Q 92.122 40.9 91.072 34.5 Q 90.022 28.1 88.522 21.5 A 50.777 50.777 0 0 0 88.016 19.433 A 62.119 62.119 0 0 0 86.922 15.8 Q 85.922 12.8 84.672 10.05 A 38.616 38.616 0 0 0 84.152 8.951 A 33.833 33.833 0 0 0 81.872 5 Q 80.322 2.7 78.522 1.4 A 0.777 0.777 0 0 0 78.468 1.352 Q 78.364 1.266 78.129 1.105 A 16.957 16.957 0 0 0 77.972 1 A 1.86 1.86 0 0 0 77.892 0.949 Q 77.504 0.718 77.322 0.9 A 0.236 0.236 0 0 0 77.262 1.004 Q 77.209 1.191 77.377 1.56 A 3.252 3.252 0 0 0 77.472 1.75 Z M 223.822 1.7 Q 224.322 1.5 224.122 1.8 Q 223.922 2.1 223.822 2.2 Q 221.222 4.5 218.122 5.1 Q 215.022 5.7 211.672 5.55 A 84.169 84.169 0 0 1 205.657 5.058 A 92.836 92.836 0 0 1 204.772 4.95 A 39.239 39.239 0 0 0 199.833 4.638 A 39.846 39.846 0 0 0 197.622 4.7 Q 195.522 4.8 193.222 5.5 Q 190.922 6.2 188.872 7.45 A 15.121 15.121 0 0 0 185.38 10.409 A 17.056 17.056 0 0 0 185.172 10.65 Q 183.522 12.6 182.622 15.1 Q 182.462 15.421 182.398 15.485 A 0.044 0.044 0 0 1 182.373 15.5 A 0.06 0.06 0 0 1 182.338 15.488 Q 182.316 15.473 182.293 15.438 A 0.43 0.43 0 0 1 182.272 15.4 A 0.373 0.373 0 0 1 182.246 15.328 Q 182.222 15.238 182.222 15.1 L 182.222 14.8 A 19.317 19.317 0 0 1 182.971 11.763 A 14.016 14.016 0 0 1 184.422 8.7 Q 186.022 6.2 188.222 4.65 Q 190.422 3.1 193.022 2.4 Q 195.622 1.7 198.222 1.6 A 57.354 57.354 0 0 1 199.815 1.578 A 54.042 54.042 0 0 1 205.272 1.85 A 748.038 748.038 0 0 0 211.565 2.462 A 682.972 682.972 0 0 0 211.972 2.5 Q 214.758 2.757 217.36 2.757 A 51.743 51.743 0 0 0 218.222 2.75 A 16.659 16.659 0 0 0 222.581 2.117 A 15.175 15.175 0 0 0 223.822 1.7 Z M 270.222 1.7 Q 270.722 1.5 270.522 1.8 Q 270.322 2.1 270.222 2.2 Q 267.622 4.5 264.522 5.1 Q 261.422 5.7 258.072 5.55 A 84.169 84.169 0 0 1 252.057 5.058 A 92.836 92.836 0 0 1 251.172 4.95 A 39.239 39.239 0 0 0 246.233 4.638 A 39.846 39.846 0 0 0 244.022 4.7 Q 241.922 4.8 239.622 5.5 Q 237.322 6.2 235.272 7.45 A 15.121 15.121 0 0 0 231.78 10.409 A 17.056 17.056 0 0 0 231.572 10.65 Q 229.922 12.6 229.022 15.1 Q 228.862 15.421 228.798 15.485 A 0.044 0.044 0 0 1 228.773 15.5 A 0.06 0.06 0 0 1 228.738 15.488 Q 228.716 15.473 228.693 15.438 A 0.43 0.43 0 0 1 228.672 15.4 A 0.373 0.373 0 0 1 228.646 15.328 Q 228.622 15.238 228.622 15.1 L 228.622 14.8 A 19.317 19.317 0 0 1 229.371 11.763 A 14.016 14.016 0 0 1 230.822 8.7 Q 232.422 6.2 234.622 4.65 Q 236.822 3.1 239.422 2.4 Q 242.022 1.7 244.622 1.6 A 57.354 57.354 0 0 1 246.215 1.578 A 54.042 54.042 0 0 1 251.672 1.85 A 748.038 748.038 0 0 0 257.965 2.462 A 682.972 682.972 0 0 0 258.372 2.5 Q 261.158 2.757 263.76 2.757 A 51.743 51.743 0 0 0 264.622 2.75 A 16.659 16.659 0 0 0 268.981 2.117 A 15.175 15.175 0 0 0 270.222 1.7 Z M 172.022 47.6 Q 171.522 52.1 170.472 56.6 A 2262.944 2262.944 0 0 0 169.601 60.346 Q 169.204 62.06 168.852 63.596 A 1310.847 1310.847 0 0 0 168.622 64.6 Q 168.251 65.807 168.052 65.807 A 0.065 0.065 0 0 1 168.022 65.8 A 0.169 0.169 0 0 1 167.882 65.723 Q 167.827 65.649 167.796 65.503 A 1.56 1.56 0 0 1 167.772 65.35 A 10.396 10.396 0 0 0 167.69 64.768 A 12.419 12.419 0 0 0 167.622 64.4 A 50.189 50.189 0 0 1 167.267 58.444 A 50.364 50.364 0 0 1 167.822 51 Q 168.822 44.3 170.022 37.3 Q 170.822 33.1 171.322 28.65 A 40.807 40.807 0 0 0 171.568 24.632 Q 171.599 22.339 171.394 19.893 A 55.413 55.413 0 0 0 171.322 19.1 A 1.275 1.275 0 0 1 171.341 18.875 Q 171.383 18.639 171.522 18.5 A 0.234 0.234 0 0 1 171.644 18.531 Q 171.731 18.582 171.766 18.721 A 0.614 0.614 0 0 1 171.772 18.75 A 0.587 0.587 0 0 0 171.827 18.91 A 0.435 0.435 0 0 0 172.022 19.1 A 8.726 8.726 0 0 1 173.065 21.25 Q 173.412 22.283 173.6 23.527 A 19.198 19.198 0 0 1 173.772 25.15 A 55.129 55.129 0 0 1 173.886 28.722 A 62.858 62.858 0 0 1 173.722 33.2 A 119.97 119.97 0 0 1 173.006 40.32 A 108.541 108.541 0 0 1 172.872 41.3 Q 172.322 45.2 172.022 47.6 Z M 112.422 56.2 Q 114.922 50.5 117.822 44.45 Q 120.722 38.4 123.422 32.9 Q 123.522 32.6 123.972 31.8 Q 124.372 31.089 124.733 31.089 A 0.368 0.368 0 0 1 124.822 31.1 A 0.092 0.092 0 0 1 124.903 31.156 Q 124.997 31.325 124.922 32 A 8.61 8.61 0 0 1 124.866 32.419 Q 124.798 32.837 124.702 33.11 A 1.685 1.685 0 0 1 124.622 33.3 Q 124.416 34.263 124.115 35.485 A 123.429 123.429 0 0 1 123.822 36.65 A 73.406 73.406 0 0 1 122.832 40.139 A 81.037 81.037 0 0 1 122.672 40.65 Q 122.022 42.7 121.322 44.65 Q 120.622 46.6 120.022 47.9 A 8.253 8.253 0 0 0 119.869 48.227 Q 119.631 48.763 119.232 49.781 A 111.27 111.27 0 0 0 118.972 50.45 A 998.801 998.801 0 0 1 118.368 52.018 Q 118.098 52.715 117.799 53.486 A 1889.852 1889.852 0 0 1 117.172 55.1 Q 116.122 57.8 114.972 60.85 Q 113.822 63.9 112.822 66.65 A 492.958 492.958 0 0 0 111.995 68.941 Q 111.619 69.991 111.288 70.933 A 286.471 286.471 0 0 0 111.072 71.55 Q 110.348 73.626 110.23 74.537 A 3.477 3.477 0 0 0 110.222 74.6 Q 110.022 75.6 109.822 75.6 Q 109.622 75.6 109.572 75.2 A 3.546 3.546 0 0 0 109.54 74.991 Q 109.494 74.744 109.422 74.6 A 4.847 4.847 0 0 1 109.166 73.754 Q 108.939 72.694 108.972 71.113 A 20.262 20.262 0 0 1 108.972 71.1 A 27.159 27.159 0 0 1 109.211 68.108 A 33.576 33.576 0 0 1 109.522 66.2 A 67.113 67.113 0 0 1 110.726 61.069 A 73.191 73.191 0 0 1 110.772 60.9 A 40.661 40.661 0 0 1 111.457 58.672 Q 111.916 57.325 112.422 56.2 Z M 21.15 53.228 A 228.318 228.318 0 0 0 21.372 53.1 Q 23.622 51.8 25.722 50.6 A 133.672 133.672 0 0 1 27.22 49.756 Q 27.812 49.428 28.35 49.139 A 70.225 70.225 0 0 1 29.372 48.6 Q 30.743 47.893 30.98 47.967 A 0.067 0.067 0 0 1 31.022 48 A 0.063 0.063 0 0 1 31.04 48.038 Q 31.057 48.175 30.692 48.626 A 6.95 6.95 0 0 1 30.672 48.65 Q 30.295 49.111 29.743 49.641 A 17.664 17.664 0 0 1 29.522 49.85 Q 28.822 50.5 28.122 51.1 Q 27.545 51.595 27.172 51.885 A 10.308 10.308 0 0 1 27.022 52 A 49.783 49.783 0 0 1 24.05 53.931 A 43.73 43.73 0 0 1 23.072 54.5 Q 21.122 55.6 19.122 56.5 Q 17.422 57.3 15.672 57.9 Q 13.922 58.5 12.122 59.2 Q 11.622 60.6 11.272 62 L 10.622 64.6 Q 10.522 65.1 10.372 65.6 Q 10.222 66.1 10.122 66.1 A 0.257 0.257 0 0 1 10.023 66.002 Q 9.908 65.82 9.872 65.35 Q 9.822 64.7 9.822 64.3 L 9.822 62.15 A 26.574 26.574 0 0 1 9.836 61.262 Q 9.851 60.825 9.881 60.441 A 13.504 13.504 0 0 1 9.922 60 Q 9.222 60.2 8.572 60.6 A 1.253 1.253 0 0 0 8.229 60.902 Q 7.955 61.26 8.022 61.8 Q 8.022 64.8 8.322 67.2 Q 8.822 70.6 10.122 73.7 L 10.372 74.2 Q 10.487 74.429 10.456 74.541 A 0.13 0.13 0 0 1 10.422 74.6 Q 10.246 74.688 9.679 74.309 A 6.393 6.393 0 0 1 9.522 74.2 A 27.467 27.467 0 0 1 8.264 72.47 A 22.722 22.722 0 0 1 7.622 71.45 Q 6.9 70.231 6.422 67.828 A 27.392 27.392 0 0 1 6.322 67.3 A 8.052 8.052 0 0 1 6.212 66.679 Q 6.113 65.979 6.077 65.032 A 25.832 25.832 0 0 1 6.072 64.9 A 29.359 29.359 0 0 1 6.056 63.922 Q 6.056 62.967 6.122 62.1 A 3.613 3.613 0 0 1 6.188 61.394 A 2.74 2.74 0 0 1 6.422 60.7 Q 6.722 60.1 7.722 59.6 Q 8.275 59.324 9.548 58.751 A 166.404 166.404 0 0 1 9.772 58.65 Q 11.222 58 12.822 57.3 Q 14.422 56.6 15.772 56 Q 16.88 55.508 17.415 55.285 A 16.021 16.021 0 0 1 17.622 55.2 Q 19.048 54.44 21.15 53.228 Z M 212.638 71.487 A 0.687 0.687 0 0 0 212.622 71.4 A 0.085 0.085 0 0 0 212.592 71.331 Q 212.503 71.257 212.146 71.361 A 3.499 3.499 0 0 0 212.022 71.4 A 14.59 14.59 0 0 1 210.342 71.949 Q 208.866 72.331 207.463 72.331 A 10.107 10.107 0 0 1 206.672 72.3 Q 204.122 72.1 201.622 71.7 Q 197.622 71.2 193.672 71.05 A 23.081 23.081 0 0 0 192.796 71.033 A 22.699 22.699 0 0 0 185.922 72.1 Q 185.722 72.2 185.372 72.35 Q 185.169 72.437 185.083 72.542 A 0.247 0.247 0 0 0 185.022 72.7 Q 185.022 72.86 185.247 72.924 A 0.951 0.951 0 0 0 185.372 72.95 Q 185.722 73 185.922 73.1 Q 187.172 73.413 188.715 73.666 A 54.278 54.278 0 0 0 190.672 73.95 A 46.581 46.581 0 0 0 192.199 74.119 A 39.853 39.853 0 0 0 195.922 74.3 L 199.622 74.3 Q 201.922 74.3 204.372 74.1 A 41.887 41.887 0 0 0 205.874 73.951 A 35.362 35.362 0 0 0 208.972 73.45 Q 210.182 73.197 211.091 72.769 A 5.699 5.699 0 0 0 212.322 72 A 0.783 0.783 0 0 0 212.464 71.911 Q 212.668 71.746 212.638 71.487 Z M 259.038 71.487 A 0.687 0.687 0 0 0 259.022 71.4 A 0.085 0.085 0 0 0 258.992 71.331 Q 258.903 71.257 258.546 71.361 A 3.499 3.499 0 0 0 258.422 71.4 A 14.59 14.59 0 0 1 256.742 71.949 Q 255.266 72.331 253.863 72.331 A 10.107 10.107 0 0 1 253.072 72.3 Q 250.522 72.1 248.022 71.7 Q 244.022 71.2 240.072 71.05 A 23.081 23.081 0 0 0 239.196 71.033 A 22.699 22.699 0 0 0 232.322 72.1 Q 232.122 72.2 231.772 72.35 Q 231.569 72.437 231.483 72.542 A 0.247 0.247 0 0 0 231.422 72.7 Q 231.422 72.86 231.647 72.924 A 0.951 0.951 0 0 0 231.772 72.95 Q 232.122 73 232.322 73.1 Q 233.572 73.413 235.115 73.666 A 54.278 54.278 0 0 0 237.072 73.95 A 46.581 46.581 0 0 0 238.599 74.119 A 39.853 39.853 0 0 0 242.322 74.3 L 246.022 74.3 Q 248.322 74.3 250.772 74.1 A 41.887 41.887 0 0 0 252.274 73.951 A 35.362 35.362 0 0 0 255.372 73.45 Q 256.582 73.197 257.491 72.769 A 5.699 5.699 0 0 0 258.722 72 A 0.783 0.783 0 0 0 258.864 71.911 Q 259.068 71.746 259.038 71.487 Z M 193.522 15.3 L 191.622 15.3 A 64.55 64.55 0 0 1 189.691 24.469 A 74.531 74.531 0 0 1 188.722 27.6 Q 186.622 33.9 184.922 40.5 Q 185.722 40.2 186.372 39.95 A 30.41 30.41 0 0 1 187.31 39.606 A 26.291 26.291 0 0 1 187.622 39.5 Q 188.122 37.5 188.622 35.65 Q 189.052 34.06 189.482 32.803 A 30.995 30.995 0 0 1 189.622 32.4 A 22.295 22.295 0 0 0 189.732 32.058 Q 189.891 31.556 190.152 30.675 A 232.544 232.544 0 0 0 190.322 30.1 A 76.52 76.52 0 0 0 190.711 28.727 Q 191.047 27.5 191.422 26 Q 192.022 23.6 192.622 20.8 Q 193.222 18 193.522 15.3 Z M 239.922 15.3 L 238.022 15.3 A 64.55 64.55 0 0 1 236.091 24.469 A 74.531 74.531 0 0 1 235.122 27.6 Q 233.022 33.9 231.322 40.5 Q 232.122 40.2 232.772 39.95 A 30.41 30.41 0 0 1 233.71 39.606 A 26.291 26.291 0 0 1 234.022 39.5 Q 234.522 37.5 235.022 35.65 Q 235.452 34.06 235.882 32.803 A 30.995 30.995 0 0 1 236.022 32.4 A 22.295 22.295 0 0 0 236.132 32.058 Q 236.291 31.556 236.552 30.675 A 232.544 232.544 0 0 0 236.722 30.1 A 76.52 76.52 0 0 0 237.111 28.727 Q 237.447 27.5 237.822 26 Q 238.422 23.6 239.022 20.8 Q 239.622 18 239.922 15.3 Z M 222.553 4.911 A 3.874 3.874 0 0 0 222.422 5 Q 221.422 5.8 219.672 6.3 A 18.913 18.913 0 0 1 218.074 6.68 A 23.611 23.611 0 0 1 215.822 7 A 42.038 42.038 0 0 1 214.485 7.105 A 49.449 49.449 0 0 1 211.372 7.2 Q 209.022 7.2 206.822 7 L 204.872 7 A 28.447 28.447 0 0 0 203.989 7.014 A 34.369 34.369 0 0 0 202.422 7.1 A 52.004 52.004 0 0 0 201.468 7.182 A 43.665 43.665 0 0 0 199.972 7.35 Q 198.822 7.5 198.122 7.7 A 0.521 0.521 0 0 0 198.077 7.702 Q 197.917 7.716 197.596 7.822 A 7.941 7.941 0 0 0 197.372 7.9 A 1.511 1.511 0 0 0 197.228 7.96 Q 196.899 8.12 196.988 8.337 A 0.367 0.367 0 0 0 197.022 8.4 A 0.17 0.17 0 0 0 197.033 8.46 Q 197.097 8.63 197.522 8.8 A 7.262 7.262 0 0 0 197.594 8.828 Q 197.919 8.954 198.106 8.988 A 0.672 0.672 0 0 0 198.222 9 Q 201.522 9.7 204.822 10.3 A 39.564 39.564 0 0 0 206.053 10.504 A 34.964 34.964 0 0 0 211.222 10.9 A 10.525 10.525 0 0 0 211.681 10.89 Q 212.201 10.867 212.788 10.794 A 20.177 20.177 0 0 0 214.022 10.6 A 18.9 18.9 0 0 0 214.624 10.477 A 21.088 21.088 0 0 0 217.272 9.7 Q 218.922 9.1 220.372 8.1 A 9.612 9.612 0 0 0 220.462 8.037 A 8.439 8.439 0 0 0 222.722 5.7 A 1.604 1.604 0 0 0 222.757 5.645 Q 222.849 5.495 222.918 5.309 A 2.746 2.746 0 0 0 223.022 4.95 A 0.681 0.681 0 0 0 223.026 4.93 Q 223.098 4.554 222.553 4.911 Z M 268.953 4.911 A 3.874 3.874 0 0 0 268.822 5 Q 267.822 5.8 266.072 6.3 A 18.913 18.913 0 0 1 264.474 6.68 A 23.611 23.611 0 0 1 262.222 7 A 42.038 42.038 0 0 1 260.885 7.105 A 49.449 49.449 0 0 1 257.772 7.2 Q 255.422 7.2 253.222 7 L 251.272 7 A 28.447 28.447 0 0 0 250.389 7.014 A 34.369 34.369 0 0 0 248.822 7.1 A 52.004 52.004 0 0 0 247.868 7.182 A 43.665 43.665 0 0 0 246.372 7.35 Q 245.222 7.5 244.522 7.7 A 0.521 0.521 0 0 0 244.477 7.702 Q 244.317 7.716 243.996 7.822 A 7.941 7.941 0 0 0 243.772 7.9 A 1.511 1.511 0 0 0 243.628 7.96 Q 243.299 8.12 243.388 8.337 A 0.367 0.367 0 0 0 243.422 8.4 A 0.17 0.17 0 0 0 243.433 8.46 Q 243.497 8.63 243.922 8.8 A 7.262 7.262 0 0 0 243.994 8.828 Q 244.319 8.954 244.506 8.988 A 0.672 0.672 0 0 0 244.622 9 Q 247.922 9.7 251.222 10.3 A 39.564 39.564 0 0 0 252.453 10.504 A 34.964 34.964 0 0 0 257.622 10.9 A 10.525 10.525 0 0 0 258.081 10.89 Q 258.601 10.867 259.188 10.794 A 20.177 20.177 0 0 0 260.422 10.6 A 18.9 18.9 0 0 0 261.024 10.477 A 21.088 21.088 0 0 0 263.672 9.7 Q 265.322 9.1 266.772 8.1 A 9.612 9.612 0 0 0 266.862 8.037 A 8.439 8.439 0 0 0 269.122 5.7 A 1.604 1.604 0 0 0 269.157 5.645 Q 269.249 5.495 269.318 5.309 A 2.746 2.746 0 0 0 269.422 4.95 A 0.681 0.681 0 0 0 269.426 4.93 Q 269.498 4.554 268.953 4.911 Z M 72.122 42.9 Q 75.022 43.2 77.872 43.6 Q 80.722 44 83.622 44.2 Q 82.522 38.9 81.722 33.7 Q 80.922 28.5 80.222 23.1 Q 78.922 28.3 76.672 33.2 Q 74.422 38.1 72.122 42.9 Z M 198.222 15.4 L 195.922 15.4 A 61.432 61.432 0 0 1 195.971 17.53 Q 195.978 18.714 195.934 19.824 A 46.019 46.019 0 0 1 195.922 20.1 Q 195.822 22.3 195.322 24 Q 194.422 27.6 193.322 31.5 Q 192.222 35.4 190.822 39.1 A 3.246 3.246 0 0 1 191.275 39.022 A 4.346 4.346 0 0 1 191.722 39 L 192.722 39 L 194.222 34.3 Q 195.622 29.9 196.772 25.2 A 54.59 54.59 0 0 0 198.213 15.559 A 59.744 59.744 0 0 0 198.222 15.4 Z M 244.622 15.4 L 242.322 15.4 A 61.432 61.432 0 0 1 242.371 17.53 Q 242.378 18.714 242.334 19.824 A 46.019 46.019 0 0 1 242.322 20.1 Q 242.222 22.3 241.722 24 Q 240.822 27.6 239.722 31.5 Q 238.622 35.4 237.222 39.1 A 3.246 3.246 0 0 1 237.675 39.022 A 4.346 4.346 0 0 1 238.122 39 L 239.122 39 L 240.622 34.3 Q 242.022 29.9 243.172 25.2 A 54.59 54.59 0 0 0 244.613 15.559 A 59.744 59.744 0 0 0 244.622 15.4 Z M 214.913 42.431 A 2.049 2.049 0 0 0 214.822 42.5 Q 213.722 43.3 211.922 43.8 A 26.926 26.926 0 0 1 210.28 44.199 A 33.746 33.746 0 0 1 207.972 44.6 Q 205.822 44.9 203.672 44.9 Q 201.522 44.9 199.722 44.7 Q 199.279 44.637 198.696 44.593 A 27.488 27.488 0 0 0 197.972 44.55 Q 196.922 44.5 195.772 44.6 Q 194.622 44.7 193.572 44.8 A 14.795 14.795 0 0 0 193.062 44.857 Q 192.705 44.904 192.396 44.964 A 6.951 6.951 0 0 0 191.822 45.1 A 0.342 0.342 0 0 0 191.807 45.1 Q 191.606 45.109 191.172 45.35 A 2.189 2.189 0 0 0 191.125 45.377 Q 190.728 45.611 190.822 45.8 A 0.364 0.364 0 0 0 190.949 46.076 Q 191.061 46.18 191.272 46.25 A 11.655 11.655 0 0 1 191.474 46.319 Q 191.77 46.424 191.922 46.5 Q 195.022 47.2 198.422 47.85 A 59.032 59.032 0 0 0 200.518 48.212 A 50.15 50.15 0 0 0 204.922 48.7 A 5.115 5.115 0 0 0 204.953 48.703 Q 206.042 48.795 207.472 48.45 Q 208.922 48.1 210.322 47.45 A 10.245 10.245 0 0 0 210.928 47.144 A 11.336 11.336 0 0 0 212.972 45.7 Q 214.222 44.6 215.022 43.2 Q 215.166 43.056 215.232 42.783 A 1.863 1.863 0 0 0 215.272 42.55 Q 215.317 42.143 214.913 42.431 Z M 261.313 42.431 A 2.049 2.049 0 0 0 261.222 42.5 Q 260.122 43.3 258.322 43.8 A 26.926 26.926 0 0 1 256.68 44.199 A 33.746 33.746 0 0 1 254.372 44.6 Q 252.222 44.9 250.072 44.9 Q 247.922 44.9 246.122 44.7 Q 245.679 44.637 245.096 44.593 A 27.488 27.488 0 0 0 244.372 44.55 Q 243.322 44.5 242.172 44.6 Q 241.022 44.7 239.972 44.8 A 14.795 14.795 0 0 0 239.462 44.857 Q 239.105 44.904 238.796 44.964 A 6.951 6.951 0 0 0 238.222 45.1 A 0.342 0.342 0 0 0 238.207 45.1 Q 238.006 45.109 237.572 45.35 A 2.189 2.189 0 0 0 237.525 45.377 Q 237.128 45.611 237.222 45.8 A 0.364 0.364 0 0 0 237.349 46.076 Q 237.461 46.18 237.672 46.25 A 11.655 11.655 0 0 1 237.874 46.319 Q 238.17 46.424 238.322 46.5 Q 241.422 47.2 244.822 47.85 A 59.032 59.032 0 0 0 246.918 48.212 A 50.15 50.15 0 0 0 251.322 48.7 A 5.115 5.115 0 0 0 251.353 48.703 Q 252.442 48.795 253.872 48.45 Q 255.322 48.1 256.722 47.45 A 10.245 10.245 0 0 0 257.328 47.144 A 11.336 11.336 0 0 0 259.372 45.7 Q 260.622 44.6 261.422 43.2 Q 261.566 43.056 261.632 42.783 A 1.863 1.863 0 0 0 261.672 42.55 Q 261.717 42.143 261.313 42.431 Z M 216.122 65.3 A 2.536 2.536 0 0 0 216.215 65.094 Q 216.322 64.82 216.322 64.6 A 0.425 0.425 0 0 0 216.303 64.552 Q 216.209 64.353 215.985 64.542 A 1.016 1.016 0 0 0 215.922 64.6 A 4.25 4.25 0 0 1 215.531 64.945 Q 215.085 65.293 214.503 65.569 A 8.147 8.147 0 0 1 213.372 66 A 20.433 20.433 0 0 1 212.694 66.193 A 22.947 22.947 0 0 1 209.872 66.75 Q 208.022 67 206.022 66.95 Q 204.022 66.9 202.322 66.8 A 23.788 23.788 0 0 1 201.855 66.795 Q 201.31 66.784 200.622 66.75 Q 199.622 66.7 198.572 66.7 A 42.452 42.452 0 0 0 198.021 66.704 A 36.645 36.645 0 0 0 196.572 66.75 Q 195.622 66.8 195.022 66.9 Q 194.869 66.9 194.54 67.017 A 6.137 6.137 0 0 0 194.322 67.1 A 2.26 2.26 0 0 0 194.238 67.136 Q 193.887 67.293 193.907 67.45 A 0.154 0.154 0 0 0 193.922 67.5 Q 194.022 67.8 194.422 68 L 195.022 68.3 Q 197.822 69.3 200.672 70.1 A 20.569 20.569 0 0 0 203.487 70.674 A 26.488 26.488 0 0 0 207.022 70.9 A 6.461 6.461 0 0 0 207.51 70.881 Q 207.933 70.849 208.409 70.763 A 13.001 13.001 0 0 0 209.372 70.55 A 11.102 11.102 0 0 0 209.541 70.505 A 11.917 11.917 0 0 0 212.022 69.5 Q 213.322 68.8 214.422 67.75 Q 215.522 66.7 216.122 65.3 Z M 262.522 65.3 A 2.536 2.536 0 0 0 262.615 65.094 Q 262.722 64.82 262.722 64.6 A 0.425 0.425 0 0 0 262.703 64.552 Q 262.609 64.353 262.385 64.542 A 1.016 1.016 0 0 0 262.322 64.6 A 4.25 4.25 0 0 1 261.931 64.945 Q 261.485 65.293 260.903 65.569 A 8.147 8.147 0 0 1 259.772 66 A 20.433 20.433 0 0 1 259.094 66.193 A 22.947 22.947 0 0 1 256.272 66.75 Q 254.422 67 252.422 66.95 Q 250.422 66.9 248.722 66.8 A 23.788 23.788 0 0 1 248.255 66.795 Q 247.71 66.784 247.022 66.75 Q 246.022 66.7 244.972 66.7 A 42.452 42.452 0 0 0 244.421 66.704 A 36.645 36.645 0 0 0 242.972 66.75 Q 242.022 66.8 241.422 66.9 Q 241.269 66.9 240.94 67.017 A 6.137 6.137 0 0 0 240.722 67.1 A 2.26 2.26 0 0 0 240.638 67.136 Q 240.287 67.293 240.307 67.45 A 0.154 0.154 0 0 0 240.322 67.5 Q 240.422 67.8 240.822 68 L 241.422 68.3 Q 244.222 69.3 247.072 70.1 A 20.569 20.569 0 0 0 249.887 70.674 A 26.488 26.488 0 0 0 253.422 70.9 A 6.461 6.461 0 0 0 253.91 70.881 Q 254.333 70.849 254.809 70.763 A 13.001 13.001 0 0 0 255.772 70.55 A 11.102 11.102 0 0 0 255.941 70.505 A 11.917 11.917 0 0 0 258.422 69.5 Q 259.722 68.8 260.822 67.75 Q 261.922 66.7 262.522 65.3 Z M 183.322 66.5 L 184.522 65 A 28.658 28.658 0 0 1 184.439 63.505 A 35.892 35.892 0 0 1 184.422 62.4 Q 184.422 61 184.572 59.85 A 20.768 20.768 0 0 1 184.671 59.175 Q 184.784 58.487 184.92 58.008 A 6.008 6.008 0 0 1 184.922 58 A 2.803 2.803 0 0 1 185.004 57.753 Q 185.181 57.3 185.422 57.3 Q 185.622 57.3 185.722 57.8 Q 185.822 58.3 185.922 58.9 Q 186.022 59.5 186.072 60.1 Q 186.122 60.7 186.122 61 A 16.207 16.207 0 0 1 186.242 61.854 A 14.012 14.012 0 0 1 186.272 62.15 A 15.023 15.023 0 0 0 186.374 62.994 A 17.357 17.357 0 0 0 186.422 63.3 Q 186.922 63 187.322 62.7 A 3.853 3.853 0 0 1 188.091 62.255 A 4.373 4.373 0 0 1 188.222 62.2 Q 188.322 57.7 189.322 52.8 Q 188.722 52.7 187.472 52.55 Q 186.445 52.427 185.25 52.54 A 13.852 13.852 0 0 0 184.722 52.6 Q 183.722 52.7 183.022 53.4 Q 182.322 54.1 182.222 55.1 Q 182.022 58.1 182.322 60.85 Q 182.622 63.6 183.322 66.5 Z M 229.722 66.5 L 230.922 65 A 28.658 28.658 0 0 1 230.839 63.505 A 35.892 35.892 0 0 1 230.822 62.4 Q 230.822 61 230.972 59.85 A 20.768 20.768 0 0 1 231.071 59.175 Q 231.184 58.487 231.32 58.008 A 6.008 6.008 0 0 1 231.322 58 A 2.803 2.803 0 0 1 231.404 57.753 Q 231.581 57.3 231.822 57.3 Q 232.022 57.3 232.122 57.8 Q 232.222 58.3 232.322 58.9 Q 232.422 59.5 232.472 60.1 Q 232.522 60.7 232.522 61 A 16.207 16.207 0 0 1 232.642 61.854 A 14.012 14.012 0 0 1 232.672 62.15 A 15.023 15.023 0 0 0 232.774 62.994 A 17.357 17.357 0 0 0 232.822 63.3 Q 233.322 63 233.722 62.7 A 3.853 3.853 0 0 1 234.491 62.255 A 4.373 4.373 0 0 1 234.622 62.2 Q 234.722 57.7 235.722 52.8 Q 235.122 52.7 233.872 52.55 Q 232.845 52.427 231.65 52.54 A 13.852 13.852 0 0 0 231.122 52.6 Q 230.122 52.7 229.422 53.4 Q 228.722 54.1 228.622 55.1 Q 228.422 58.1 228.722 60.85 Q 229.022 63.6 229.722 66.5 Z M 103.257 74.867 A 51.527 51.527 0 0 0 105.022 75.7 A 1.789 1.789 0 0 0 105.114 75.734 Q 105.55 75.881 105.822 75.7 Q 106.081 75.527 105.52 74.982 A 5.149 5.149 0 0 0 105.322 74.8 A 21.05 21.05 0 0 1 103.017 72.81 A 26.336 26.336 0 0 1 100.322 69.65 A 46.133 46.133 0 0 1 98.836 67.49 A 38.186 38.186 0 0 1 96.522 63.4 A 22.659 22.659 0 0 1 96.282 62.956 Q 95.882 62.195 95.422 61.2 A 8.905 8.905 0 0 0 95.222 60.792 Q 94.754 59.9 94.422 59.9 Q 94.222 59.9 94.372 60.9 Q 94.522 61.9 94.722 62.7 Q 95.322 64.7 96.272 67 A 19.364 19.364 0 0 0 97.247 69.013 A 23.863 23.863 0 0 0 98.922 71.6 A 9.517 9.517 0 0 0 99.203 71.965 A 8.142 8.142 0 0 0 101.522 73.95 Q 102.319 74.402 103.257 74.867 Z M 125.922 1.3 L 126.322 1.7 A 20.844 20.844 0 0 1 127.433 3.372 A 16.78 16.78 0 0 1 128.122 4.65 A 5.982 5.982 0 0 1 128.476 5.612 Q 128.776 6.669 128.933 8.257 A 30.658 30.658 0 0 1 129.022 9.4 Q 129.122 10.7 129.022 12.6 A 40.487 40.487 0 0 1 128.801 15.228 A 34.737 34.737 0 0 1 128.672 16.2 A 29.265 29.265 0 0 1 128.471 17.405 Q 128.291 18.35 128.072 19.1 A 7.69 7.69 0 0 1 127.962 19.448 Q 127.701 20.208 127.469 20.208 A 0.146 0.146 0 0 1 127.422 20.2 A 0.164 0.164 0 0 1 127.299 20.138 Q 127.189 20.016 127.122 19.65 A 9.801 9.801 0 0 1 127.037 19.082 Q 126.998 18.761 126.972 18.4 A 20.109 20.109 0 0 1 126.923 17.137 A 22.222 22.222 0 0 1 126.922 16.95 L 126.922 15.9 L 126.922 12.65 A 26.766 26.766 0 0 0 126.814 10.293 A 31.086 31.086 0 0 0 126.722 9.4 A 44.182 44.182 0 0 0 126.423 6.952 A 35.779 35.779 0 0 0 126.172 5.5 A 57.458 57.458 0 0 0 125.445 2.273 A 63.72 63.72 0 0 0 125.322 1.8 A 0.881 0.881 0 0 1 125.25 1.591 Q 125.229 1.492 125.224 1.379 A 1.684 1.684 0 0 1 125.222 1.3 A 1.374 1.374 0 0 1 125.225 1.206 Q 125.235 1.064 125.277 1.02 A 0.06 0.06 0 0 1 125.322 1 Q 125.622 1 125.922 1.3 Z M 162.922 1.2 L 163.122 1.4 Q 164.222 2.8 164.872 4.1 A 4.86 4.86 0 0 1 165.194 4.966 Q 165.46 5.919 165.567 7.362 A 25.392 25.392 0 0 1 165.622 8.4 Q 165.622 9.5 165.372 11.2 A 44.459 44.459 0 0 1 164.9 13.864 A 39.534 39.534 0 0 1 164.772 14.45 Q 164.504 15.637 164.178 16.53 A 10.264 10.264 0 0 1 163.972 17.05 A 4.545 4.545 0 0 1 163.832 17.35 Q 163.463 18.062 163.128 17.903 A 0.346 0.346 0 0 1 163.122 17.9 A 0.258 0.258 0 0 1 163.015 17.79 Q 162.926 17.631 162.922 17.283 A 2.916 2.916 0 0 1 162.922 17.25 L 162.922 16.05 A 7.689 7.689 0 0 1 162.999 14.951 A 6.997 6.997 0 0 1 163.022 14.8 A 12.285 12.285 0 0 0 163.066 14.519 Q 163.122 14.125 163.122 13.9 A 36.996 36.996 0 0 0 163.31 12.024 A 29.934 29.934 0 0 0 163.372 10.9 A 26.148 26.148 0 0 0 163.389 9.967 A 26.192 26.192 0 0 0 163.322 8.1 A 36.196 36.196 0 0 0 163.114 5.72 A 30.806 30.806 0 0 0 162.972 4.7 A 24.991 24.991 0 0 0 162.457 2.244 A 28.652 28.652 0 0 0 162.222 1.4 Q 162.14 1.235 162.091 1.003 A 2.598 2.598 0 0 1 162.072 0.9 Q 162.022 0.602 162.22 0.699 A 0.398 0.398 0 0 1 162.222 0.7 A 3.775 3.775 0 0 0 162.342 0.815 Q 162.406 0.873 162.463 0.919 A 1.531 1.531 0 0 0 162.572 1 Q 162.721 1.099 162.919 1.198 A 4.255 4.255 0 0 0 162.922 1.2 Z M 166.822 67.3 Q 167.422 69 168.172 70.4 Q 168.922 71.8 169.722 73.2 A 0.529 0.529 0 0 1 169.783 73.275 Q 169.853 73.376 169.922 73.55 A 0.65 0.65 0 0 1 169.938 73.595 Q 170.003 73.8 169.822 73.8 Q 169.54 73.8 169.39 73.711 A 0.404 0.404 0 0 1 169.372 73.7 Q 169.223 73.601 169.025 73.502 A 4.255 4.255 0 0 0 169.022 73.5 A 1.844 1.844 0 0 1 168.907 73.438 Q 168.85 73.404 168.804 73.37 A 0.734 0.734 0 0 1 168.722 73.3 A 23.259 23.259 0 0 1 167.611 72.373 Q 167.104 71.921 166.689 71.487 A 12.671 12.671 0 0 1 166.422 71.2 Q 165.686 70.383 164.951 68.496 A 24.788 24.788 0 0 1 164.622 67.6 Q 164.416 66.913 164.21 65.989 A 40.889 40.889 0 0 1 164.022 65.1 Q 163.722 63.6 163.622 62.2 Q 163.544 61.106 163.588 60.257 A 9.553 9.553 0 0 1 163.622 59.8 A 3.85 3.85 0 0 1 163.669 59.467 Q 163.796 58.8 164.122 58.8 A 0.083 0.083 0 0 1 164.173 58.823 Q 164.261 58.896 164.4 59.201 A 4.91 4.91 0 0 1 164.422 59.25 A 6.42 6.42 0 0 1 164.647 59.836 A 8.001 8.001 0 0 1 164.772 60.25 L 165.072 61.35 A 11.733 11.733 0 0 0 165.142 61.596 Q 165.242 61.932 165.315 62.086 A 0.965 0.965 0 0 0 165.322 62.1 A 25.541 25.541 0 0 1 165.915 63.978 A 21.715 21.715 0 0 1 166.122 64.8 Q 166.422 66.1 166.822 67.3 Z M 45.722 56.5 L 45.622 56.5 A 1.887 1.887 0 0 1 45.721 55.902 A 2.009 2.009 0 0 1 45.722 55.9 L 45.922 55.3 A 18.184 18.184 0 0 1 46.417 54.321 Q 46.957 53.334 47.472 52.75 A 5.655 5.655 0 0 1 48.034 52.204 Q 48.753 51.588 49.922 50.9 Q 50.922 50.3 52.722 49.7 A 16.732 16.732 0 0 1 53.754 49.39 Q 54.741 49.131 55.457 49.103 A 4.324 4.324 0 0 1 55.622 49.1 A 2.227 2.227 0 0 1 55.761 49.105 Q 55.931 49.116 56.172 49.15 A 0.625 0.625 0 0 1 56.313 49.186 Q 56.501 49.26 56.52 49.454 A 0.467 0.467 0 0 1 56.522 49.5 A 0.278 0.278 0 0 1 56.457 49.663 Q 56.307 49.862 55.817 50.126 A 7.76 7.76 0 0 1 55.472 50.3 Q 54.572 50.729 54.223 50.937 A 2.411 2.411 0 0 0 54.122 51 A 341.631 341.631 0 0 0 52.347 52.081 Q 49.872 53.6 48.522 54.5 Q 46.722 55.7 45.922 56.5 L 45.722 56.5 Z M 183.422 17.7 L 183.422 17 A 16.681 16.681 0 0 1 183.691 15.491 A 12.735 12.735 0 0 1 184.022 14.3 A 7.046 7.046 0 0 1 184.529 13.153 Q 184.823 12.615 185.229 12.058 A 12.461 12.461 0 0 1 185.422 11.8 Q 185.711 11.367 186.286 10.96 A 6.35 6.35 0 0 1 186.772 10.65 Q 187.722 10.1 188.622 9.7 A 8.421 8.421 0 0 1 189.269 9.442 Q 189.591 9.33 189.883 9.263 A 4.196 4.196 0 0 1 190.222 9.2 A 2.232 2.232 0 0 1 190.323 9.188 Q 190.922 9.13 190.922 9.5 Q 191.101 9.769 190.478 10.358 A 5.422 5.422 0 0 1 190.322 10.5 Q 189.525 11.197 189.126 11.398 A 1.509 1.509 0 0 1 189.122 11.4 Q 188.322 12 187.622 12.55 A 6.796 6.796 0 0 0 186.707 13.424 A 8.156 8.156 0 0 0 186.322 13.9 A 13.676 13.676 0 0 0 185.43 15.011 A 11.214 11.214 0 0 0 184.972 15.7 A 17.215 17.215 0 0 0 184.304 16.903 A 21.107 21.107 0 0 0 183.922 17.7 A 4.246 4.246 0 0 1 183.85 17.929 Q 183.736 18.257 183.622 18.357 A 0.152 0.152 0 0 1 183.522 18.4 A 0.05 0.05 0 0 1 183.483 18.365 Q 183.433 18.267 183.424 17.887 A 7.821 7.821 0 0 1 183.422 17.7 Z M 229.822 17.7 L 229.822 17 A 16.681 16.681 0 0 1 230.091 15.491 A 12.735 12.735 0 0 1 230.422 14.3 A 7.046 7.046 0 0 1 230.929 13.153 Q 231.223 12.615 231.629 12.058 A 12.461 12.461 0 0 1 231.822 11.8 Q 232.111 11.367 232.686 10.96 A 6.35 6.35 0 0 1 233.172 10.65 Q 234.122 10.1 235.022 9.7 A 8.421 8.421 0 0 1 235.669 9.442 Q 235.991 9.33 236.283 9.263 A 4.196 4.196 0 0 1 236.622 9.2 A 2.232 2.232 0 0 1 236.723 9.188 Q 237.322 9.13 237.322 9.5 Q 237.501 9.769 236.878 10.358 A 5.422 5.422 0 0 1 236.722 10.5 Q 235.925 11.197 235.526 11.398 A 1.509 1.509 0 0 1 235.522 11.4 Q 234.722 12 234.022 12.55 A 6.796 6.796 0 0 0 233.107 13.424 A 8.156 8.156 0 0 0 232.722 13.9 A 13.676 13.676 0 0 0 231.83 15.011 A 11.214 11.214 0 0 0 231.372 15.7 A 17.215 17.215 0 0 0 230.704 16.903 A 21.107 21.107 0 0 0 230.322 17.7 A 4.246 4.246 0 0 1 230.25 17.929 Q 230.136 18.257 230.022 18.357 A 0.152 0.152 0 0 1 229.922 18.4 A 0.05 0.05 0 0 1 229.883 18.365 Q 229.833 18.267 229.824 17.887 A 7.821 7.821 0 0 1 229.822 17.7 Z M 185.179 46.775 A 0.437 0.437 0 0 0 185.222 46.6 A 0.283 0.283 0 0 0 185.072 46.432 Q 184.909 46.351 184.589 46.385 A 2.433 2.433 0 0 0 184.472 46.4 A 4.525 4.525 0 0 0 184.157 46.461 Q 183.623 46.582 182.972 46.85 A 9.474 9.474 0 0 0 182.494 47.063 A 10.92 10.92 0 0 0 181.272 47.75 A 20.788 20.788 0 0 0 181.038 47.904 Q 180.694 48.133 180.395 48.353 A 12.05 12.05 0 0 0 179.822 48.8 A 10.173 10.173 0 0 0 179.586 49.044 Q 178.48 50.227 178.072 51.45 Q 177.763 52.378 177.572 53.046 A 17.128 17.128 0 0 0 177.422 53.6 Q 177.322 53.9 177.322 54.55 Q 177.322 55.141 177.736 54.451 A 5.389 5.389 0 0 0 177.822 54.3 A 7.954 7.954 0 0 1 178.261 53.464 A 6.173 6.173 0 0 1 179.022 52.45 A 56.213 56.213 0 0 1 179.401 52.048 A 65.18 65.18 0 0 1 180.522 50.9 A 2.704 2.704 0 0 1 180.614 50.813 Q 180.86 50.59 181.472 50.1 Q 182.222 49.5 183.072 48.8 A 48.288 48.288 0 0 0 183.099 48.778 Q 183.933 48.091 184.572 47.5 A 6.343 6.343 0 0 0 184.691 47.388 Q 185.071 47.019 185.179 46.775 Z M 231.579 46.775 A 0.437 0.437 0 0 0 231.622 46.6 A 0.283 0.283 0 0 0 231.472 46.432 Q 231.309 46.351 230.989 46.385 A 2.433 2.433 0 0 0 230.872 46.4 A 4.525 4.525 0 0 0 230.557 46.461 Q 230.023 46.582 229.372 46.85 A 9.474 9.474 0 0 0 228.894 47.063 A 10.92 10.92 0 0 0 227.672 47.75 A 20.788 20.788 0 0 0 227.438 47.904 Q 227.094 48.133 226.795 48.353 A 12.05 12.05 0 0 0 226.222 48.8 A 10.173 10.173 0 0 0 225.986 49.044 Q 224.88 50.227 224.472 51.45 Q 224.163 52.378 223.972 53.046 A 17.128 17.128 0 0 0 223.822 53.6 Q 223.722 53.9 223.722 54.55 Q 223.722 55.141 224.136 54.451 A 5.389 5.389 0 0 0 224.222 54.3 A 7.954 7.954 0 0 1 224.661 53.464 A 6.173 6.173 0 0 1 225.422 52.45 A 56.213 56.213 0 0 1 225.801 52.048 A 65.18 65.18 0 0 1 226.922 50.9 A 2.704 2.704 0 0 1 227.014 50.813 Q 227.26 50.59 227.872 50.1 Q 228.622 49.5 229.472 48.8 A 48.288 48.288 0 0 0 229.499 48.778 Q 230.333 48.091 230.972 47.5 A 6.343 6.343 0 0 0 231.091 47.388 Q 231.471 47.019 231.579 46.775 Z M 180.922 74.3 L 180.822 74.3 L 180.822 74.2 L 180.822 74 Q 181.205 72.852 181.617 71.996 A 10.374 10.374 0 0 1 181.872 71.5 A 4.789 4.789 0 0 1 182.391 70.752 Q 182.681 70.404 183.066 70.044 A 11.783 11.783 0 0 1 183.822 69.4 A 18.019 18.019 0 0 1 184.429 69.014 Q 184.751 68.817 185.117 68.61 A 30.258 30.258 0 0 1 185.222 68.55 A 8.65 8.65 0 0 1 186.397 67.997 A 7.582 7.582 0 0 1 186.822 67.85 Q 187.622 67.6 188.222 67.6 Q 188.507 67.6 188.679 67.69 A 0.461 0.461 0 0 1 188.922 68 A 0.39 0.39 0 0 1 188.868 68.186 Q 188.734 68.43 188.272 68.75 Q 187.622 69.2 186.822 69.7 Q 186.022 70.2 185.272 70.65 Q 184.582 71.064 184.272 71.267 A 7.365 7.365 0 0 0 184.222 71.3 Q 183.422 72 182.822 72.5 A 6.303 6.303 0 0 0 182.26 73.035 Q 181.991 73.322 181.722 73.669 A 10.785 10.785 0 0 0 181.622 73.8 A 5.478 5.478 0 0 1 181.431 73.983 Q 181.158 74.23 181.001 74.285 A 0.245 0.245 0 0 1 180.922 74.3 Z M 227.322 74.3 L 227.222 74.3 L 227.222 74.2 L 227.222 74 Q 227.605 72.852 228.017 71.996 A 10.374 10.374 0 0 1 228.272 71.5 A 4.789 4.789 0 0 1 228.791 70.752 Q 229.081 70.404 229.466 70.044 A 11.783 11.783 0 0 1 230.222 69.4 A 18.019 18.019 0 0 1 230.829 69.014 Q 231.151 68.817 231.517 68.61 A 30.258 30.258 0 0 1 231.622 68.55 A 8.65 8.65 0 0 1 232.797 67.997 A 7.582 7.582 0 0 1 233.222 67.85 Q 234.022 67.6 234.622 67.6 Q 234.907 67.6 235.079 67.69 A 0.461 0.461 0 0 1 235.322 68 A 0.39 0.39 0 0 1 235.268 68.186 Q 235.134 68.43 234.672 68.75 Q 234.022 69.2 233.222 69.7 Q 232.422 70.2 231.672 70.65 Q 230.982 71.064 230.672 71.267 A 7.365 7.365 0 0 0 230.622 71.3 Q 229.822 72 229.222 72.5 A 6.303 6.303 0 0 0 228.66 73.035 Q 228.391 73.322 228.122 73.669 A 10.785 10.785 0 0 0 228.022 73.8 A 5.478 5.478 0 0 1 227.831 73.983 Q 227.558 74.23 227.401 74.285 A 0.245 0.245 0 0 1 227.322 74.3 Z" vector-effect="non-scaling-stroke"/></g></svg>